# This file uses centimeters as units for non-parametric coordinates.

mtllib telefono_GEO.mtl
g default
v -450.346924 -536.048157 329.429443
v -422.416626 -536.048157 329.429443
v -450.346924 -533.368469 303.239014
v -422.416626 -533.368469 303.239014
v -450.346924 -510.178772 332.076263
v -447.554199 -507.036804 329.751526
v -425.209351 -507.036804 329.751526
v -422.416626 -510.178772 332.076263
v -447.554199 -504.893005 308.798645
v -450.346924 -507.499084 305.885803
v -425.209351 -504.893005 308.798645
v -422.416626 -507.499084 305.885803
vt 0.680986 0.756293
vt 0.641063 0.793883
vt 0.680962 0.793835
vt 0.640488 0.719284
vt 0.796947 0.853614
vt 0.717660 0.674147
vt 0.677073 0.711300
vt 0.796663 0.823635
vt 0.827314 0.823395
vt 0.827619 0.853372
vt 0.832646 0.858583
vt 0.640954 0.756346
vt 0.755274 0.674104
vt 0.755386 0.711180
vt 0.717921 0.711217
vt 0.639642 0.674255
vt 0.677256 0.674212
vt 0.639608 0.711337
vt 0.681371 0.719198
vt 0.791762 0.858669
vt 0.791643 0.818423
vt 0.832492 0.818340
vn 0.000000 -0.994807 -0.101783
vn 0.000000 -0.994807 -0.101783
vn 0.000000 -0.994807 -0.101783
vn 0.000000 -0.994807 -0.101783
vn -0.718989 0.691412 0.070742
vn -0.718989 0.691412 0.070742
vn -0.718989 0.691412 0.070742
vn -0.718989 0.691412 0.070742
vn 0.000000 0.594786 0.803884
vn 0.000000 0.594786 0.803884
vn 0.000000 0.594786 0.803884
vn 0.000000 0.594786 0.803884
vn 0.718989 0.691412 0.070742
vn 0.718989 0.691412 0.070742
vn 0.718989 0.691412 0.070742
vn 0.718989 0.691412 0.070742
vn 0.000000 0.745258 -0.666776
vn 0.000000 0.745259 -0.666776
vn 0.000000 0.745259 -0.666776
vn 0.000000 0.745258 -0.666776
vn 0.000000 -0.101784 0.994807
vn 0.000000 -0.101784 0.994807
vn 0.000000 -0.101784 0.994807
vn 0.000000 -0.101784 0.994807
vn 0.000000 0.994807 0.101783
vn 0.000000 0.994807 0.101783
vn 0.000000 0.994807 0.101783
vn 0.000000 0.994807 0.101783
vn 0.000000 0.101782 -0.994807
vn 0.000000 0.101782 -0.994807
vn 0.000000 0.101782 -0.994807
vn 0.000000 0.101782 -0.994807
vn 1.000000 0.000001 0.000000
vn 1.000000 0.000001 0.000000
vn 1.000000 0.000001 0.000000
vn 1.000000 0.000001 0.000000
vn -1.000000 0.000000 0.000000
vn -1.000000 0.000000 0.000000
vn -1.000000 0.000000 0.000000
vn -1.000000 0.000000 0.000000
s off
g pCube34 telefono
usemtl telefono_SG
f 3/12/1 4/1/2 2/3/3 1/2/4
f 5/21/5 6/8/6 9/5/7 10/20/8
f 6/8/9 5/21/10 8/22/11 7/9/12
f 7/9/13 8/22/14 12/11/15 11/10/16
f 10/20/17 9/5/18 11/10/19 12/11/20
f 1/17/21 2/6/22 8/15/23 5/7/24
f 6/8/25 7/9/26 11/10/27 9/5/28
f 10/4/29 12/19/30 4/1/31 3/12/32
f 2/6/33 4/13/34 12/14/35 8/15/36
f 3/16/37 1/17/38 5/7/39 10/18/40
g default
v -450.346924 -539.414124 362.327393
v -422.416626 -539.414124 362.327393
v -450.346924 -536.734436 336.136963
v -422.416626 -536.734436 336.136963
v -450.346924 -513.544739 364.974243
v -447.554199 -510.402771 362.649475
v -425.209351 -510.402771 362.649475
v -422.416626 -513.544739 364.974243
v -447.554199 -508.258972 341.696594
v -450.346924 -510.865051 338.783752
v -425.209351 -508.258972 341.696594
v -422.416626 -510.865051 338.783752
vt 0.680986 0.756293
vt 0.641063 0.793883
vt 0.680962 0.793835
vt 0.640488 0.719284
vt 0.797389 0.803207
vt 0.717660 0.674147
vt 0.677073 0.711300
vt 0.797105 0.773228
vt 0.827756 0.772988
vt 0.828061 0.802965
vt 0.833088 0.808176
vt 0.640954 0.756346
vt 0.755274 0.674104
vt 0.755386 0.711180
vt 0.717921 0.711217
vt 0.639642 0.674255
vt 0.677256 0.674212
vt 0.639608 0.711337
vt 0.681371 0.719198
vt 0.792204 0.808262
vt 0.792085 0.768016
vt 0.832934 0.767933
vn 0.000000 -0.994806 -0.101784
vn 0.000000 -0.994806 -0.101784
vn 0.000000 -0.994806 -0.101784
vn 0.000000 -0.994806 -0.101784
vn -0.718989 0.691412 0.070742
vn -0.718989 0.691412 0.070742
vn -0.718989 0.691412 0.070742
vn -0.718989 0.691412 0.070742
vn 0.000000 0.594800 0.803874
vn 0.000000 0.594800 0.803874
vn 0.000000 0.594800 0.803874
vn 0.000000 0.594800 0.803874
vn 0.718989 0.691412 0.070742
vn 0.718989 0.691412 0.070742
vn 0.718989 0.691412 0.070742
vn 0.718989 0.691412 0.070742
vn 0.000000 0.745259 -0.666776
vn 0.000000 0.745259 -0.666776
vn 0.000000 0.745259 -0.666776
vn 0.000000 0.745259 -0.666776
vn 0.000000 -0.101784 0.994807
vn 0.000000 -0.101784 0.994807
vn 0.000000 -0.101784 0.994807
vn 0.000000 -0.101784 0.994807
vn 0.000000 0.994806 0.101785
vn 0.000000 0.994806 0.101785
vn 0.000000 0.994806 0.101785
vn 0.000000 0.994806 0.101785
vn 0.000000 0.101782 -0.994807
vn 0.000000 0.101782 -0.994807
vn 0.000000 0.101782 -0.994807
vn 0.000000 0.101782 -0.994807
vn 1.000000 0.000001 0.000000
vn 1.000000 0.000001 0.000000
vn 1.000000 0.000001 0.000000
vn 1.000000 0.000001 0.000000
vn -1.000000 0.000000 0.000000
vn -1.000000 0.000000 0.000000
vn -1.000000 0.000000 0.000000
vn -1.000000 0.000000 0.000000
s off
g telefono pCube36
usemtl telefono_SG
f 15/34/41 16/23/42 14/25/43 13/24/44
f 17/43/45 18/30/46 21/27/47 22/42/48
f 18/30/49 17/43/50 20/44/51 19/31/52
f 19/31/53 20/44/54 24/33/55 23/32/56
f 22/42/57 21/27/58 23/32/59 24/33/60
f 13/39/61 14/28/62 20/37/63 17/29/64
f 18/30/65 19/31/66 23/32/67 21/27/68
f 22/26/69 24/41/70 16/23/71 15/34/72
f 14/28/73 16/35/74 24/36/75 20/37/76
f 15/38/77 13/39/78 17/29/79 22/40/80
g default
v -484.162384 -539.414124 362.327393
v -456.232056 -539.414124 362.327393
v -484.162384 -536.734436 336.136963
v -456.232056 -536.734436 336.136963
v -484.162384 -513.544739 364.974243
v -481.369690 -510.402771 362.649475
v -459.024780 -510.402771 362.649475
v -456.232056 -513.544739 364.974243
v -481.369690 -508.258972 341.696594
v -484.162384 -510.865051 338.783752
v -459.024780 -508.258972 341.696594
v -456.232056 -510.865051 338.783752
vt 0.680986 0.756293
vt 0.641063 0.793883
vt 0.680962 0.793835
vt 0.640488 0.719284
vt 0.748402 0.805113
vt 0.717659 0.674147
vt 0.677073 0.711300
vt 0.748118 0.775135
vt 0.778769 0.774895
vt 0.779075 0.804872
vt 0.784101 0.810083
vt 0.640954 0.756346
vt 0.755273 0.674104
vt 0.755386 0.711180
vt 0.717921 0.711217
vt 0.639642 0.674255
vt 0.677256 0.674212
vt 0.639608 0.711337
vt 0.681371 0.719198
vt 0.743218 0.810169
vt 0.743098 0.769923
vt 0.783947 0.769840
vn 0.000000 -0.994806 -0.101784
vn 0.000000 -0.994806 -0.101784
vn 0.000000 -0.994806 -0.101784
vn 0.000000 -0.994806 -0.101784
vn -0.718999 0.691402 0.070743
vn -0.718999 0.691401 0.070743
vn -0.718999 0.691401 0.070743
vn -0.718999 0.691401 0.070743
vn 0.000000 0.594797 0.803876
vn 0.000000 0.594797 0.803876
vn 0.000000 0.594797 0.803876
vn 0.000000 0.594797 0.803876
vn 0.718989 0.691412 0.070742
vn 0.718989 0.691412 0.070742
vn 0.718989 0.691412 0.070742
vn 0.718989 0.691412 0.070742
vn 0.000000 0.745260 -0.666774
vn 0.000000 0.745260 -0.666774
vn 0.000000 0.745260 -0.666774
vn 0.000000 0.745260 -0.666774
vn 0.000000 -0.101785 0.994807
vn 0.000000 -0.101785 0.994807
vn 0.000000 -0.101785 0.994807
vn 0.000000 -0.101785 0.994807
vn 0.000000 0.994807 0.101785
vn 0.000000 0.994807 0.101785
vn 0.000000 0.994807 0.101785
vn 0.000000 0.994807 0.101785
vn 0.000000 0.101782 -0.994807
vn 0.000000 0.101782 -0.994807
vn 0.000000 0.101782 -0.994807
vn 0.000000 0.101782 -0.994807
vn 1.000000 0.000000 0.000000
vn 1.000000 0.000000 0.000000
vn 1.000000 0.000000 0.000000
vn 1.000000 0.000000 0.000000
vn -1.000000 0.000001 0.000000
vn -1.000000 0.000001 0.000000
vn -1.000000 0.000001 0.000000
vn -1.000000 0.000001 0.000000
s off
g telefono pCube35
usemtl telefono_SG
f 27/56/81 28/45/82 26/47/83 25/46/84
f 29/65/85 30/52/86 33/49/87 34/64/88
f 30/52/89 29/65/90 32/66/91 31/53/92
f 31/53/93 32/66/94 36/55/95 35/54/96
f 34/64/97 33/49/98 35/54/99 36/55/100
f 25/61/101 26/50/102 32/59/103 29/51/104
f 30/52/105 31/53/106 35/54/107 33/49/108
f 34/48/109 36/63/110 28/45/111 27/56/112
f 26/50/113 28/57/114 36/58/115 32/59/116
f 27/60/117 25/61/118 29/51/119 34/62/120
g default
v -484.162384 -536.048157 329.429443
v -456.232056 -536.048157 329.429443
v -484.162384 -533.368469 303.239014
v -456.232056 -533.368469 303.239014
v -484.162384 -510.178772 332.076263
v -481.369690 -507.036804 329.751526
v -459.024780 -507.036804 329.751526
v -456.232056 -510.178772 332.076263
v -481.369690 -504.893005 308.798645
v -484.162384 -507.499084 305.885803
v -459.024780 -504.893005 308.798645
v -456.232056 -507.499084 305.885803
vt 0.680986 0.756293
vt 0.641063 0.793883
vt 0.680962 0.793835
vt 0.640488 0.719284
vt 0.746107 0.853561
vt 0.717659 0.674147
vt 0.677073 0.711300
vt 0.745822 0.823582
vt 0.776473 0.823342
vt 0.776779 0.853319
vt 0.781805 0.858530
vt 0.640954 0.756346
vt 0.755273 0.674104
vt 0.755386 0.711180
vt 0.717921 0.711217
vt 0.639642 0.674255
vt 0.677256 0.674212
vt 0.639608 0.711337
vt 0.681371 0.719198
vt 0.740922 0.858616
vt 0.740802 0.818370
vt 0.781651 0.818287
vn 0.000000 -0.994806 -0.101784
vn 0.000000 -0.994806 -0.101784
vn 0.000000 -0.994806 -0.101784
vn 0.000000 -0.994806 -0.101784
vn -0.718994 0.691407 0.070742
vn -0.718994 0.691407 0.070742
vn -0.718994 0.691407 0.070742
vn -0.718994 0.691407 0.070742
vn 0.000000 0.594786 0.803884
vn 0.000000 0.594786 0.803884
vn 0.000000 0.594786 0.803884
vn 0.000000 0.594786 0.803884
vn 0.718989 0.691412 0.070742
vn 0.718989 0.691412 0.070742
vn 0.718989 0.691412 0.070742
vn 0.718989 0.691412 0.070742
vn 0.000000 0.745260 -0.666774
vn 0.000000 0.745260 -0.666774
vn 0.000000 0.745260 -0.666774
vn 0.000000 0.745260 -0.666774
vn 0.000000 -0.101783 0.994807
vn 0.000000 -0.101783 0.994807
vn 0.000000 -0.101783 0.994807
vn 0.000000 -0.101783 0.994807
vn 0.000000 0.994807 0.101782
vn 0.000000 0.994807 0.101782
vn 0.000000 0.994807 0.101782
vn 0.000000 0.994807 0.101782
vn 0.000000 0.101782 -0.994807
vn 0.000000 0.101782 -0.994807
vn 0.000000 0.101782 -0.994807
vn 0.000000 0.101782 -0.994807
vn 1.000000 0.000000 0.000000
vn 1.000000 0.000000 0.000000
vn 1.000000 0.000000 0.000000
vn 1.000000 0.000000 0.000000
vn -1.000000 0.000001 0.000000
vn -1.000000 0.000001 0.000000
vn -1.000000 0.000001 0.000000
vn -1.000000 0.000001 0.000000
s off
g telefono pCube33
usemtl telefono_SG
f 39/78/121 40/67/122 38/69/123 37/68/124
f 41/87/125 42/74/126 45/71/127 46/86/128
f 42/74/129 41/87/130 44/88/131 43/75/132
f 43/75/133 44/88/134 48/77/135 47/76/136
f 46/86/137 45/71/138 47/76/139 48/77/140
f 37/83/141 38/72/142 44/81/143 41/73/144
f 42/74/145 43/75/146 47/76/147 45/71/148
f 46/70/149 48/85/150 40/67/151 39/78/152
f 38/72/153 40/79/154 48/80/155 44/81/156
f 39/82/157 37/83/158 41/73/159 46/84/160
g default
v -621.762085 -560.222717 427.383240
v -405.488281 -560.222717 427.383270
v -405.488281 -524.648499 427.383270
v -405.488281 -500.390869 164.340302
v -621.762085 -560.222717 164.340302
v -405.488281 -560.222717 164.340302
v -538.679565 -560.222717 427.383270
v -538.679565 -524.648499 427.383270
v -538.679626 -500.390869 164.340302
v -538.679626 -560.222717 164.340302
v -627.282654 -542.745178 434.097778
v -627.282715 -529.997131 157.625824
v -539.958679 -529.997131 157.625824
v -399.967651 -529.997131 157.625824
v -399.967651 -542.745178 434.097778
v -539.958679 -542.745178 434.097778
v -562.503601 -560.222717 427.383270
v -562.503601 -548.090881 434.097778
v -555.767578 -538.678528 427.383240
v -555.767578 -514.420898 164.340302
v -562.503540 -535.342712 157.625824
v -562.503479 -560.222717 164.340302
v -599.808411 -560.222717 427.383270
v -599.808350 -548.090881 434.097778
v -606.544312 -538.678528 427.383270
v -606.544312 -514.420898 164.340286
v -599.808411 -535.342712 157.625809
v -599.808350 -560.222717 164.340317
v -627.282654 -535.072937 267.705322
v -621.762085 -560.222717 269.072968
v -599.808411 -560.222717 269.072937
v -562.503540 -560.222717 269.072968
v -538.679565 -560.222717 269.072968
v -405.488281 -560.222717 269.072968
v -399.967651 -535.072937 267.705322
v -405.488281 -510.049194 269.072968
v -538.679565 -510.049194 269.072968
v -562.503540 -510.049194 269.072968
v -599.808411 -510.049194 269.072937
v -627.282654 -538.615906 344.544250
v -621.762024 -560.222717 342.179565
v -599.808411 -560.222717 342.179596
v -562.503540 -560.222717 342.179565
v -538.679626 -560.222717 342.179596
v -405.488342 -560.222717 342.179565
v -399.967651 -538.615906 344.544220
v -405.488342 -516.791077 342.179565
v -538.679626 -516.791077 342.179596
v -562.503540 -516.791077 342.179565
v -599.808411 -516.791077 342.179596
v -555.767578 -532.557251 361.006897
v -606.544250 -532.557251 361.006897
v -606.544312 -522.925232 256.559723
v -555.767517 -522.925232 256.559753
v -624.522034 -533.695984 430.740173
v -615.037903 -530.847961 427.383270
v -616.108521 -522.648376 349.174103
v -615.550598 -516.791077 342.179596
v -623.867737 -525.115356 343.081421
v -614.286255 -507.283203 164.340302
v -623.592957 -510.209778 162.113449
v -614.518250 -516.178345 263.116547
v -623.498108 -517.918579 268.642914
v -615.466187 -510.049194 269.072968
vt 0.066604 0.096811
vt 0.064011 0.130070
vt 0.094305 0.485530
vt 0.040736 0.497347
vt 0.071928 0.637751
vt 0.068461 0.512396
vt 0.085001 0.505021
vt 0.091000 0.613316
vt 0.048425 0.958260
vt 0.530015 0.102835
vt 0.489218 0.116830
vt 0.485035 0.085914
vt 0.200755 0.086618
vt 0.201949 0.122711
vt 0.061121 0.463601
vt 0.083988 0.441063
vt 0.218938 0.440462
vt 0.459383 0.628739
vt 0.035468 0.645001
vt 0.197988 0.476533
vt 0.066468 0.228685
vt 0.203163 0.507133
vt 0.410784 0.506355
vt 0.423166 0.639407
vt 0.203315 0.647681
vt 0.495894 0.211123
vt 0.547686 0.210363
vt 0.456529 0.955447
vt 0.492110 0.412868
vt 0.204808 0.222179
vt 0.053489 0.507427
vt 0.058106 0.648625
vt 0.217449 0.936356
vt 0.421574 0.922538
vt 0.156192 0.481045
vt 0.064567 0.190041
vt 0.169771 0.498535
vt 0.169558 0.610702
vt 0.536740 0.170500
vt 0.185338 0.946622
vt 0.494484 0.174165
vt 0.203484 0.183451
vt 0.102748 0.943902
vt 0.063835 0.773594
vt 0.075306 0.941408
vt 0.035469 0.774763
vt 0.320053 0.081460
vt 0.320031 0.117629
vt 0.321509 0.177653
vt 0.322302 0.215797
vt 0.334879 0.434338
vt 0.343604 0.476696
vt 0.427817 0.756400
vt 0.207627 0.767757
vt 0.175747 0.792979
vt 0.097266 0.795182
vt 0.088678 0.938555
vt 0.079943 0.783260
vt 0.167403 0.765874
vt 0.163130 0.649434
vt 0.106553 0.768148
vt 0.101910 0.651501
vt 0.081523 0.770263
vt 0.076456 0.652091
vt 0.530849 0.442854
vt 0.469329 0.758177
vt 0.049262 0.070541
vt 0.194798 0.050848
vt 0.214833 0.476686
vt 0.428933 0.478945
vt 0.323078 0.038885
vt 0.509778 0.045218
vt 0.106289 0.978958
vt 0.170701 0.983151
vt 0.041028 0.126479
vt 0.213695 0.985552
vt 0.041525 0.190474
vt 0.035468 0.229772
vn -0.045384 -0.419624 0.906563
vn -0.019681 -0.456650 0.889429
vn 0.007210 0.023160 0.999706
vn 0.079248 0.014399 0.996751
vn 0.400391 0.835602 0.376107
vn 0.597257 0.729604 0.333110
vn 0.145174 0.962355 0.229776
vn 0.168403 0.965385 0.199181
vn 0.043372 0.008060 -0.999026
vn 0.006346 0.003035 -0.999975
vn -0.010844 -0.251608 -0.967768
vn -0.025862 -0.239132 -0.970643
vn 0.000000 -1.000000 -0.000000
vn 0.000000 -1.000000 0.000000
vn 0.000000 -1.000000 -0.000000
vn 0.000000 -1.000000 -0.000000
vn 0.999943 -0.008933 0.005904
vn 0.962705 -0.270479 -0.006391
vn 0.968569 -0.248675 -0.005876
vn 0.999983 0.000555 0.005865
vn -0.962706 -0.270475 -0.006391
vn -0.996343 -0.085437 0.001341
vn -0.998004 -0.063125 0.001987
vn -0.968570 -0.248672 -0.005876
vn 0.000000 0.001196 0.999999
vn -0.011559 0.003322 0.999928
vn 0.005666 -0.364979 0.930999
vn 0.000000 -0.358624 0.933482
vn 0.000000 0.995775 0.091830
vn 0.000000 0.995775 0.091830
vn 0.000000 0.995775 0.091830
vn -0.023635 0.995093 0.096078
vn 0.003508 -0.219350 -0.975640
vn -0.006662 0.002000 -0.999976
vn 0.000000 -0.000277 -1.000000
vn 0.000000 -0.216859 -0.976203
vn 0.000000 -1.000000 0.000000
vn 0.000000 -1.000000 0.000000
vn 0.000000 -1.000000 0.000000
vn 0.000000 -1.000000 -0.000000
vn -0.846606 0.530304 0.045124
vn -0.878742 0.475376 0.042782
vn -0.263253 0.507807 -0.820262
vn 0.000000 0.221176 -0.975234
vn 0.962559 0.270438 0.018549
vn 0.968739 0.247500 0.016976
vn -0.294719 0.614021 0.732201
vn 0.000000 0.347863 0.937545
vn 0.190483 0.460287 0.867094
vn -0.010077 0.027292 0.999577
vn 0.020048 -0.453719 0.890919
vn -0.214466 0.954893 0.205386
vn -0.244730 0.952253 0.182544
vn -0.007528 0.004066 -0.999963
vn -0.216267 0.968254 -0.125354
vn 0.011075 -0.250639 -0.968017
vn 0.000000 -1.000000 -0.000000
vn 0.000000 -1.000000 -0.000000
vn 0.133875 0.976040 -0.171532
vn -0.899193 0.436513 0.030153
vn -0.885288 0.463780 0.034253
vn -0.999498 -0.031589 0.002421
vn -0.999087 -0.042664 0.002162
vn -0.980555 -0.196190 -0.004635
vn -0.977845 -0.209273 -0.004945
vn 0.000000 -1.000000 -0.000000
vn 0.000000 -1.000000 0.000000
vn 0.000000 -1.000000 -0.000000
vn 0.000000 -1.000000 -0.000000
vn 0.000000 -1.000000 -0.000000
vn 0.000000 -1.000000 -0.000000
vn 0.000000 -1.000000 0.000000
vn 0.000000 -1.000000 0.000000
vn 0.000000 -1.000000 0.000000
vn 0.000000 -1.000000 0.000000
vn 0.980555 -0.196189 -0.004636
vn 0.999968 0.006386 0.004792
vn 0.999988 -0.001075 0.004736
vn 0.977845 -0.209273 -0.004945
vn 0.980477 0.196173 0.013456
vn 0.977949 0.208357 0.014291
vn 0.000000 0.995775 0.091829
vn 0.000000 0.995775 0.091829
vn -0.036043 0.995417 0.088581
vn 0.000000 0.995775 0.091830
vn -0.235893 0.971712 0.011400
vn 0.145989 0.989286 0.000477
vn 0.568745 0.690735 -0.446559
vn 0.547555 0.818073 -0.175898
vn 0.000000 0.997081 -0.076351
vn 0.000000 0.971179 0.238350
vn -0.000000 0.995672 -0.092941
vn 0.000000 0.967879 0.251417
vn -0.306188 0.951874 0.013577
vn -0.309971 0.937445 0.158478
vn 0.112090 0.263752 -0.958056
vn -0.307144 0.946753 0.096552
vn -0.318587 0.941406 0.110708
vn -0.233246 0.969266 0.078233
vn -0.242569 0.968253 0.060386
s 1
g telefono pCube29
usemtl telefono_SG
f 49/89/161 71/90/162 72/163/163 59/155/164
f 105/93/165 104/94/166 73/95/167 100/96/168
f 60/160/169 75/98/170 76/99/171 53/100/172
s 3
f 71/90/173 49/89/174 89/101/175 90/102/176
s 4
f 63/103/177 50/104/178 93/105/179 94/157/180
s 1
f 49/89/181 59/155/182 88/156/183 89/101/184
f 63/103/185 64/166/186 55/109/187 50/104/188
f 56/110/189 51/111/190 95/112/191 96/113/192
f 58/114/193 61/115/194 62/153/195 54/117/196
s 3
f 50/104/197 55/109/198 92/118/199 93/105/200
s 1
f 59/92/182 103/119/201 107/120/202 88/107/183
f 62/116/195 61/164/194 57/121/203 52/122/204
s 4
f 51/111/205 63/158/177 94/106/180 95/112/206
s 1
f 56/110/207 64/108/186 63/158/185 51/111/208
f 59/92/164 72/91/163 73/95/167 104/94/166 103/119/209
f 66/165/210 65/124/211 55/109/187 64/166/186
f 67/125/212 66/123/210 64/108/186 56/110/207
f 99/126/213 67/125/212 56/110/207 96/113/192
f 69/162/214 68/128/215 57/121/203 61/164/194
f 70/129/216 69/127/214 61/115/194 58/114/193
s 3
f 55/109/198 65/124/217 91/130/218 92/118/199
s 1
f 72/163/163 71/90/162 65/124/211 66/165/210
f 73/95/167 72/91/163 66/123/210 67/125/212
f 99/126/213 100/96/168 73/95/167 67/125/212
f 75/161/170 74/131/219 68/128/215 69/162/214
f 76/99/171 75/98/170 69/127/214 70/129/216
s 3
f 65/124/217 71/90/173 90/102/176 91/130/218
s 1
f 111/132/220 109/133/221 60/97/222 77/134/223
f 60/160/222 53/100/224 78/135/225 77/159/223
s 3
f 78/135/226 53/100/227 76/99/228 79/136/229
f 76/99/228 70/129/230 80/137/231 79/136/229
f 70/129/230 58/114/232 81/138/233 80/137/231
f 58/114/232 54/117/234 82/139/235 81/138/233
s 4
f 54/117/236 62/153/237 83/140/238 82/139/239
f 62/116/237 52/122/240 84/141/241 83/154/238
s 1
f 52/122/242 57/121/243 85/142/244 84/141/245
f 57/121/203 68/128/215 102/143/246 85/142/244
f 74/131/219 101/144/247 102/143/246 68/128/215
f 101/144/247 74/131/219 108/145/248 110/146/249
f 107/120/202 111/132/220 77/134/223 88/107/183
f 77/159/223 78/135/225 89/101/184 88/156/183
s 3
f 78/135/226 79/136/229 90/102/176 89/101/175
f 91/130/218 90/102/176 79/136/229 80/137/231
f 92/118/199 91/130/218 80/137/231 81/138/233
f 93/105/200 92/118/199 81/138/233 82/139/235
s 4
f 94/157/180 93/105/179 82/139/239 83/140/238
f 95/112/206 94/106/180 83/154/238 84/141/241
s 1
f 84/141/245 85/142/244 96/113/192 95/112/191
f 85/142/244 86/147/250 97/148/251 96/113/192
f 86/147/250 87/149/252 98/150/253 97/148/251
f 112/151/254 106/152/255 98/150/253 87/149/252
f 96/113/192 97/148/251 99/126/213
f 97/148/251 98/150/253 100/96/168 99/126/213
f 102/143/246 101/144/247 87/149/252 86/147/250
f 85/142/244 102/143/246 86/147/250
f 106/152/255 105/93/165 100/96/168 98/150/253
f 109/133/256 108/145/248 74/131/219 75/161/170 60/97/169
f 110/146/249 112/151/254 87/149/252 101/144/247
f 103/119/201 104/94/257 105/93/258 107/120/202
f 107/120/202 106/152/255 112/151/254 111/132/220
f 108/145/259 109/133/221 111/132/220 110/146/260
f 105/93/258 106/152/255 107/120/202
f 110/146/260 111/132/220 112/151/254
g default
v -519.245911 -539.414124 362.327393
v -491.315613 -539.414124 362.327393
v -519.245911 -536.734436 336.136963
v -491.315613 -536.734436 336.136963
v -519.245911 -513.544739 364.974243
v -516.453247 -510.402771 362.649475
v -494.108307 -510.402771 362.649475
v -491.315613 -513.544739 364.974243
v -516.453247 -508.258972 341.696594
v -519.245911 -510.865051 338.783752
v -494.108307 -508.258972 341.696594
v -491.315613 -510.865051 338.783752
vt 0.680986 0.756293
vt 0.641063 0.793883
vt 0.680962 0.793835
vt 0.640488 0.719284
vt 0.698392 0.804108
vt 0.717659 0.674147
vt 0.677073 0.711300
vt 0.698107 0.774129
vt 0.728758 0.773889
vt 0.729064 0.803867
vt 0.734090 0.809078
vt 0.640954 0.756346
vt 0.755273 0.674104
vt 0.755386 0.711180
vt 0.717921 0.711217
vt 0.639642 0.674255
vt 0.677256 0.674212
vt 0.639608 0.711336
vt 0.681371 0.719198
vt 0.693207 0.809163
vt 0.693088 0.768918
vt 0.733936 0.768835
vn 0.000000 -0.994806 -0.101784
vn 0.000000 -0.994806 -0.101784
vn 0.000000 -0.994806 -0.101784
vn 0.000000 -0.994806 -0.101784
vn -0.718994 0.691407 0.070742
vn -0.718994 0.691407 0.070742
vn -0.718994 0.691407 0.070742
vn -0.718994 0.691407 0.070742
vn 0.000000 0.594797 0.803876
vn 0.000000 0.594797 0.803876
vn 0.000000 0.594797 0.803876
vn 0.000000 0.594797 0.803876
vn 0.718989 0.691412 0.070742
vn 0.718989 0.691412 0.070742
vn 0.718989 0.691412 0.070742
vn 0.718989 0.691412 0.070742
vn 0.000000 0.745260 -0.666774
vn 0.000000 0.745260 -0.666774
vn 0.000000 0.745260 -0.666774
vn 0.000000 0.745260 -0.666774
vn 0.000000 -0.101785 0.994807
vn 0.000000 -0.101785 0.994807
vn 0.000000 -0.101785 0.994807
vn 0.000000 -0.101785 0.994807
vn 0.000000 0.994807 0.101782
vn 0.000000 0.994807 0.101782
vn 0.000000 0.994807 0.101782
vn 0.000000 0.994807 0.101782
vn 0.000000 0.101782 -0.994807
vn 0.000000 0.101782 -0.994807
vn 0.000000 0.101782 -0.994807
vn 0.000000 0.101782 -0.994807
vn 1.000000 0.000001 0.000000
vn 1.000000 0.000001 0.000000
vn 1.000000 0.000001 0.000000
vn 1.000000 0.000001 0.000000
vn -1.000000 -0.000001 0.000000
vn -1.000000 -0.000001 0.000000
vn -1.000000 -0.000001 0.000000
vn -1.000000 -0.000001 0.000000
s off
g telefono pCube37
usemtl telefono_SG
f 115/178/261 116/167/262 114/169/263 113/168/264
f 117/187/265 118/174/266 121/171/267 122/186/268
f 118/174/269 117/187/270 120/188/271 119/175/272
f 119/175/273 120/188/274 124/177/275 123/176/276
f 122/186/277 121/171/278 123/176/279 124/177/280
f 113/183/281 114/172/282 120/181/283 117/173/284
f 118/174/285 119/175/286 123/176/287 121/171/288
f 122/170/289 124/185/290 116/167/291 115/178/292
f 114/172/293 116/179/294 124/180/295 120/181/296
f 115/182/297 113/183/298 117/173/299 122/184/300
g default
v -519.245911 -542.901733 396.414429
v -491.315613 -542.901733 396.414429
v -519.245911 -540.222107 370.223969
v -491.315613 -540.222107 370.223969
v -519.245911 -517.032410 399.061249
v -516.453247 -513.890381 396.736511
v -494.108307 -513.890381 396.736511
v -491.315613 -517.032410 399.061249
v -516.453247 -511.746582 375.783630
v -519.245911 -514.352722 372.870819
v -494.108307 -511.746582 375.783630
v -491.315613 -514.352722 372.870819
vt 0.680996 0.756264
vt 0.641234 0.793804
vt 0.681023 0.793694
vt 0.640489 0.719432
vt 0.699649 0.758543
vt 0.717499 0.674150
vt 0.677495 0.711291
vt 0.698970 0.728669
vt 0.730401 0.728344
vt 0.730406 0.758246
vt 0.735397 0.763435
vt 0.641060 0.756380
vt 0.755158 0.674204
vt 0.755105 0.711400
vt 0.717446 0.711347
vt 0.639889 0.674040
vt 0.677547 0.674094
vt 0.639836 0.711237
vt 0.693765 0.723489
vt 0.735747 0.723288
vt 0.681370 0.719276
vt 0.694516 0.763590
vn 0.000000 -0.994807 -0.101782
vn 0.000000 -0.994807 -0.101782
vn 0.000000 -0.994807 -0.101782
vn 0.000000 -0.994807 -0.101782
vn -0.719007 0.691394 0.070741
vn -0.719007 0.691394 0.070741
vn -0.719007 0.691394 0.070741
vn -0.719007 0.691394 0.070741
vn 0.000000 0.594786 0.803884
vn 0.000000 0.594786 0.803884
vn 0.000000 0.594786 0.803884
vn 0.000000 0.594786 0.803884
vn 0.719001 0.691399 0.070742
vn 0.719001 0.691399 0.070742
vn 0.719001 0.691399 0.070742
vn 0.719001 0.691399 0.070742
vn 0.000000 0.745251 -0.666784
vn 0.000000 0.745251 -0.666784
vn 0.000000 0.745251 -0.666784
vn 0.000000 0.745251 -0.666784
vn 0.000000 -0.101784 0.994807
vn 0.000000 -0.101784 0.994807
vn 0.000000 -0.101784 0.994807
vn 0.000000 -0.101784 0.994807
vn 0.000000 0.994807 0.101784
vn 0.000000 0.994807 0.101784
vn 0.000000 0.994807 0.101784
vn 0.000000 0.994807 0.101784
vn 0.000000 0.101785 -0.994807
vn 0.000000 0.101785 -0.994807
vn 0.000000 0.101785 -0.994807
vn 0.000000 0.101785 -0.994807
vn 1.000000 -0.000002 0.000000
vn 1.000000 -0.000002 0.000000
vn 1.000000 -0.000002 0.000000
vn 1.000000 -0.000002 0.000000
vn -1.000000 -0.000000 0.000000
vn -1.000000 -0.000000 0.000000
vn -1.000000 -0.000000 0.000000
vn -1.000000 -0.000000 0.000000
s off
g telefono pCube40
usemtl telefono_SG
f 127/200/301 128/189/302 126/191/303 125/190/304
f 129/207/305 130/196/306 133/193/307 134/210/308
f 130/196/309 129/207/310 132/208/311 131/197/312
f 131/197/313 132/208/314 136/199/315 135/198/316
f 134/210/317 133/193/318 135/198/319 136/199/320
f 125/205/321 126/194/322 132/203/323 129/195/324
f 130/196/325 131/197/326 135/198/327 133/193/328
f 134/192/329 136/209/330 128/189/331 127/200/332
f 126/194/333 128/201/334 136/202/335 132/203/336
f 127/204/337 125/205/338 129/195/339 134/206/340
g default
v -484.162384 -542.901733 396.414429
v -456.232056 -542.901733 396.414429
v -484.162384 -540.222107 370.223969
v -456.232056 -540.222107 370.223969
v -484.162384 -517.032410 399.061249
v -481.369690 -513.890381 396.736511
v -459.024780 -513.890381 396.736511
v -456.232056 -517.032410 399.061249
v -481.369690 -511.746582 375.783630
v -484.162384 -514.352722 372.870819
v -459.024780 -511.746582 375.783630
v -456.232056 -514.352722 372.870819
vt 0.680986 0.756293
vt 0.641063 0.793883
vt 0.680963 0.793835
vt 0.640488 0.719284
vt 0.749823 0.757617
vt 0.717659 0.674147
vt 0.677073 0.711300
vt 0.749538 0.727638
vt 0.780190 0.727399
vt 0.780495 0.757376
vt 0.785521 0.762587
vt 0.640955 0.756346
vt 0.755274 0.674104
vt 0.755386 0.711180
vt 0.717921 0.711217
vt 0.639642 0.674255
vt 0.677256 0.674212
vt 0.639608 0.711337
vt 0.681371 0.719198
vt 0.744638 0.762672
vt 0.744519 0.722427
vt 0.785368 0.722344
vn 0.000000 -0.994807 -0.101782
vn 0.000000 -0.994807 -0.101782
vn 0.000000 -0.994807 -0.101782
vn 0.000000 -0.994807 -0.101782
vn -0.719002 0.691399 0.070742
vn -0.719002 0.691399 0.070742
vn -0.719002 0.691399 0.070742
vn -0.719002 0.691399 0.070742
vn 0.000000 0.594786 0.803884
vn 0.000000 0.594786 0.803884
vn 0.000000 0.594786 0.803884
vn 0.000000 0.594786 0.803884
vn 0.718996 0.691405 0.070740
vn 0.718996 0.691405 0.070740
vn 0.718996 0.691405 0.070740
vn 0.718996 0.691405 0.070740
vn 0.000000 0.745251 -0.666784
vn 0.000000 0.745251 -0.666784
vn 0.000000 0.745251 -0.666784
vn 0.000000 0.745251 -0.666784
vn 0.000000 -0.101784 0.994807
vn 0.000000 -0.101784 0.994807
vn 0.000000 -0.101784 0.994807
vn 0.000000 -0.101784 0.994807
vn 0.000000 0.994807 0.101785
vn 0.000000 0.994807 0.101785
vn 0.000000 0.994807 0.101785
vn 0.000000 0.994807 0.101785
vn 0.000000 0.101784 -0.994807
vn 0.000000 0.101784 -0.994807
vn 0.000000 0.101784 -0.994807
vn 0.000000 0.101784 -0.994807
vn 1.000000 0.000000 0.000000
vn 1.000000 0.000000 0.000000
vn 1.000000 0.000000 0.000000
vn 1.000000 0.000000 0.000000
vn -1.000000 -0.000001 0.000000
vn -1.000000 -0.000001 0.000000
vn -1.000000 -0.000001 0.000000
vn -1.000000 -0.000001 0.000000
s off
g telefono pCube38
usemtl telefono_SG
f 139/222/341 140/211/342 138/213/343 137/212/344
f 141/231/345 142/218/346 145/215/347 146/230/348
f 142/218/349 141/231/350 144/232/351 143/219/352
f 143/219/353 144/232/354 148/221/355 147/220/356
f 146/230/357 145/215/358 147/220/359 148/221/360
f 137/227/361 138/216/362 144/225/363 141/217/364
f 142/218/365 143/219/366 147/220/367 145/215/368
f 146/214/369 148/229/370 140/211/371 139/222/372
f 138/216/373 140/223/374 148/224/375 144/225/376
f 139/226/377 137/227/378 141/217/379 146/228/380
g default
v -450.346924 -542.901733 396.414429
v -422.416626 -542.901733 396.414429
v -450.346924 -540.222107 370.223969
v -422.416626 -540.222107 370.223969
v -450.346924 -517.032410 399.061249
v -447.554199 -513.890381 396.736511
v -425.209351 -513.890381 396.736511
v -422.416626 -517.032410 399.061249
v -447.554199 -511.746582 375.783630
v -450.346924 -514.352722 372.870819
v -425.209351 -511.746582 375.783630
v -422.416626 -514.352722 372.870819
vt 0.680929 0.756342
vt 0.640868 0.793979
vt 0.680867 0.794045
vt 0.640991 0.719036
vt 0.798139 0.755987
vt 0.717645 0.674187
vt 0.677061 0.711261
vt 0.798195 0.726062
vt 0.828947 0.725817
vt 0.829586 0.755717
vt 0.834786 0.760910
vt 0.640930 0.756276
vt 0.755184 0.674141
vt 0.755307 0.711135
vt 0.717932 0.711175
vt 0.639727 0.674299
vt 0.677267 0.674255
vt 0.639687 0.711299
vt 0.680990 0.719101
vt 0.792779 0.761038
vt 0.793215 0.720861
vt 0.834087 0.720775
vn 0.000000 -0.994807 -0.101782
vn 0.000000 -0.994807 -0.101782
vn 0.000000 -0.994807 -0.101782
vn 0.000000 -0.994807 -0.101782
vn -0.718996 0.691404 0.070740
vn -0.718996 0.691404 0.070740
vn -0.718996 0.691404 0.070740
vn -0.718996 0.691404 0.070740
vn 0.000000 0.594786 0.803884
vn 0.000000 0.594786 0.803884
vn 0.000000 0.594786 0.803884
vn 0.000000 0.594786 0.803884
vn 0.718991 0.691410 0.070740
vn 0.718991 0.691410 0.070740
vn 0.718991 0.691410 0.070740
vn 0.718991 0.691410 0.070740
vn 0.000000 0.745255 -0.666779
vn 0.000000 0.745255 -0.666779
vn 0.000000 0.745255 -0.666779
vn 0.000000 0.745255 -0.666779
vn 0.000000 -0.101784 0.994807
vn 0.000000 -0.101784 0.994807
vn 0.000000 -0.101784 0.994807
vn 0.000000 -0.101784 0.994807
vn 0.000000 0.994807 0.101783
vn 0.000000 0.994807 0.101783
vn 0.000000 0.994807 0.101783
vn 0.000000 0.994807 0.101783
vn 0.000000 0.101784 -0.994807
vn 0.000000 0.101784 -0.994807
vn 0.000000 0.101784 -0.994807
vn 0.000000 0.101784 -0.994807
vn 1.000000 -0.000002 0.000000
vn 1.000000 -0.000002 0.000000
vn 1.000000 -0.000002 0.000000
vn 1.000000 -0.000002 0.000000
vn -1.000000 0.000000 0.000000
vn -1.000000 0.000000 0.000000
vn -1.000000 0.000000 0.000000
vn -1.000000 0.000000 0.000000
s off
g telefono pCube39
usemtl telefono_SG
f 151/244/381 152/233/382 150/235/383 149/234/384
f 153/253/385 154/240/386 157/237/387 158/252/388
f 154/240/389 153/253/390 156/254/391 155/241/392
f 155/241/393 156/254/394 160/243/395 159/242/396
f 158/252/397 157/237/398 159/242/399 160/243/400
f 149/249/401 150/238/402 156/247/403 153/239/404
f 154/240/405 155/241/406 159/242/407 157/237/408
f 158/236/409 160/251/410 152/233/411 151/244/412
f 150/238/413 152/245/414 160/246/415 156/247/416
f 151/248/417 149/249/418 153/239/419 158/250/420
g default
v -519.245911 -536.048157 329.429443
v -491.315613 -536.048157 329.429443
v -519.245911 -533.368469 303.239014
v -491.315613 -533.368469 303.239014
v -519.245911 -510.178772 332.076263
v -516.453247 -507.036804 329.751526
v -494.108307 -507.036804 329.751526
v -491.315613 -510.178772 332.076263
v -516.453247 -504.893005 308.798645
v -519.245911 -507.499084 305.885803
v -494.108307 -504.893005 308.798645
v -491.315613 -507.499084 305.885803
vt 0.680986 0.756293
vt 0.641063 0.793883
vt 0.680962 0.793835
vt 0.640488 0.719284
vt 0.698570 0.854213
vt 0.717659 0.674147
vt 0.677073 0.711300
vt 0.698285 0.824234
vt 0.728936 0.823994
vt 0.729242 0.853972
vt 0.734268 0.859183
vt 0.640954 0.756346
vt 0.755274 0.674104
vt 0.755386 0.711180
vt 0.717921 0.711217
vt 0.639642 0.674255
vt 0.677256 0.674212
vt 0.639608 0.711337
vt 0.681371 0.719198
vt 0.693385 0.859268
vt 0.693265 0.819023
vt 0.734114 0.818940
vn 0.000000 -0.994807 -0.101783
vn 0.000000 -0.994807 -0.101783
vn 0.000000 -0.994807 -0.101783
vn 0.000000 -0.994807 -0.101783
vn -0.718999 0.691402 0.070742
vn -0.718999 0.691402 0.070742
vn -0.718999 0.691402 0.070742
vn -0.718999 0.691402 0.070742
vn 0.000000 0.594786 0.803884
vn 0.000000 0.594786 0.803884
vn 0.000000 0.594786 0.803884
vn 0.000000 0.594786 0.803884
vn 0.718994 0.691407 0.070742
vn 0.718994 0.691407 0.070742
vn 0.718994 0.691407 0.070742
vn 0.718994 0.691407 0.070742
vn 0.000000 0.745260 -0.666774
vn 0.000000 0.745260 -0.666774
vn 0.000000 0.745260 -0.666774
vn 0.000000 0.745260 -0.666775
vn 0.000000 -0.101783 0.994807
vn 0.000000 -0.101783 0.994807
vn 0.000000 -0.101783 0.994807
vn 0.000000 -0.101783 0.994807
vn 0.000000 0.994807 0.101784
vn 0.000000 0.994807 0.101784
vn 0.000000 0.994807 0.101784
vn 0.000000 0.994807 0.101784
vn 0.000000 0.101782 -0.994807
vn 0.000000 0.101782 -0.994807
vn 0.000000 0.101782 -0.994807
vn 0.000000 0.101782 -0.994807
vn 1.000000 0.000001 0.000000
vn 1.000000 0.000001 0.000000
vn 1.000000 0.000001 0.000000
vn 1.000000 0.000001 0.000000
vn -1.000000 0.000001 0.000000
vn -1.000000 0.000001 0.000000
vn -1.000000 0.000001 0.000000
vn -1.000000 0.000001 0.000000
s off
g telefono pCube32
usemtl telefono_SG
f 163/266/421 164/255/422 162/257/423 161/256/424
f 165/275/425 166/262/426 169/259/427 170/274/428
f 166/262/429 165/275/430 168/276/431 167/263/432
f 167/263/433 168/276/434 172/265/435 171/264/436
f 170/274/437 169/259/438 171/264/439 172/265/440
f 161/271/441 162/260/442 168/269/443 165/261/444
f 166/262/445 167/263/446 171/264/447 169/259/448
f 170/258/449 172/273/450 164/255/451 163/266/452
f 162/260/453 164/267/454 172/268/455 168/269/456
f 163/270/457 161/271/458 165/261/459 170/272/460
g default
v -609.572876 -411.000275 269.460266
v -609.572876 -428.832275 253.601624
v -547.349426 -428.832275 253.601624
v -547.349426 -411.000275 269.460266
v -617.875671 -433.364624 222.402802
v -617.875671 -414.926178 223.142426
v -539.046387 -414.926178 223.142426
v -539.046387 -433.364624 222.402802
v -614.717224 -424.600189 360.349823
v -614.717224 -443.038666 359.610168
v -542.205017 -443.038666 359.610168
v -542.205017 -424.600189 360.349823
v -606.324890 -464.549011 363.159180
v -550.597107 -464.549011 363.159180
v -609.587769 -454.081390 222.353821
v -547.334412 -454.081390 222.353821
v -552.367065 -450.340271 244.255035
v -603.106689 -450.340271 244.255035
v -595.736023 -451.580627 425.396667
v -595.766907 -434.636230 426.058167
v -578.632019 -433.529144 430.318665
v -595.779724 -416.665649 368.305359
v -578.615417 -413.817200 371.226715
v -595.308594 -403.399292 269.765198
v -578.591736 -399.794556 269.802979
v -595.949219 -406.035339 216.620819
v -578.613342 -403.380096 214.441574
v -583.676941 -418.355621 161.242340
v -599.277100 -419.871979 166.812897
v -599.221191 -436.889374 166.083496
v -583.803284 -436.685822 160.506577
v -578.631042 -429.420776 268.614990
v -595.125610 -429.234741 263.635498
v -596.291748 -442.771240 352.942902
v -578.620056 -442.707977 350.723846
v -596.199280 -464.379608 358.938568
v -578.610596 -464.382599 356.250732
v -595.778748 -471.190918 413.185760
v -578.656128 -471.519653 418.175323
v -595.249268 -456.959808 178.944885
v -578.660278 -456.824005 172.835556
v -596.298279 -453.898926 217.728745
v -578.665649 -453.881348 214.982285
v -578.561401 -451.014557 259.230316
v -594.532776 -450.680084 252.725967
v -561.966919 -403.862274 269.606506
v -561.538574 -417.000397 368.063660
v -561.540833 -434.924500 425.844849
v -561.572021 -451.643280 425.192047
v -561.527100 -471.344147 413.197296
v -561.058289 -464.529785 359.554443
v -560.998657 -442.842682 353.825989
v -562.144531 -429.213440 263.559387
v -562.533203 -450.779785 253.057358
v -561.001892 -454.012909 217.709671
v -562.053894 -457.103088 178.821732
v -558.073059 -436.936920 166.090027
v -573.496094 -436.711060 160.541122
v -558.017822 -420.152771 166.808655
v -573.616455 -418.503326 161.271118
v -561.373230 -406.626068 216.710312
v -614.717224 -450.166534 407.667786
v -609.083618 -451.263641 417.497437
v -609.091675 -437.006561 418.064667
v -614.717224 -436.408600 408.210388
v -542.205017 -450.162689 407.641846
v -547.917358 -451.281372 417.416443
v -547.912354 -437.097321 417.982483
v -542.205017 -436.400940 408.179352
v -613.062317 -423.221588 178.199844
v -617.875671 -422.927490 188.510803
v -617.875671 -436.867279 187.999252
v -613.025696 -437.351471 177.602386
v -543.911011 -423.304291 178.235443
v -539.046387 -422.924042 188.525665
v -539.046387 -436.866058 188.011765
v -543.946167 -437.365234 177.642609
v -601.052429 -471.046692 409.590698
v -606.324890 -469.948425 399.563385
v -555.947266 -471.118713 409.520935
v -550.597107 -469.946503 399.550415
v -604.804016 -457.298126 187.379959
v -609.474670 -456.751953 197.966095
v -552.154236 -457.347168 187.416595
v -547.447388 -456.751465 197.969772
v -561.407776 -469.609192 399.539307
v -578.642456 -469.371094 399.533691
v -595.884521 -469.477814 399.541992
v -561.537292 -455.585785 197.917191
v -578.663391 -455.074554 197.893433
v -595.762329 -455.463074 197.909668
v -578.578247 -445.540894 430.644562
v -588.287537 -445.460968 428.652802
v -568.516357 -445.457367 428.562988
v -568.506714 -451.923920 428.287018
v -578.494385 -459.641083 426.133667
v -588.227966 -451.898132 428.465759
v -568.497009 -459.531708 423.407532
v -588.168457 -459.554535 423.976318
v -570.247253 -450.021637 440.339905
v -570.239380 -456.848541 437.452393
v -578.506714 -449.988068 440.354126
v -578.448486 -456.841827 437.455261
v -570.231323 -464.592560 434.177032
v -578.476501 -464.517487 434.208771
v -586.504089 -456.717072 437.508057
v -586.454895 -464.442383 434.240509
v -586.553162 -449.954468 440.368317
vt 0.557176 0.355069
vt 0.860825 0.156007
vt 0.637096 0.628005
vt 0.568430 0.287368
vt 0.663487 0.287342
vt 0.610380 0.604274
vt 0.768692 0.585720
vt 0.674861 0.355003
vt 0.476251 0.481856
vt 0.834631 0.362044
vt 0.670735 0.155345
vt 0.691408 0.370025
vt 0.729273 0.607780
vt 0.821134 0.171883
vt 0.652072 0.571684
vt 0.741709 0.203681
vt 0.800770 0.367972
vt 0.788640 0.346693
vt 0.514793 0.569828
vt 0.728045 0.280803
vt 0.803716 0.454589
vt 0.754646 0.351656
vt 0.748377 0.373432
vt 0.780438 0.459138
vt 0.615792 0.143302
vt 0.590979 0.146458
vt 0.615876 0.287590
vt 0.591513 0.287435
vt 0.615904 0.365061
vt 0.591012 0.362606
vt 0.608686 0.443170
vt 0.801813 0.087593
vt 0.784050 0.055678
vt 0.663646 0.482269
vt 0.699255 0.506405
vt 0.752740 0.110233
vt 0.688310 0.656201
vt 0.542333 0.618492
vt 0.670633 0.614774
vt 0.776798 0.224715
vt 0.565860 0.743850
vt 0.507544 0.464377
vt 0.539065 0.490069
vt 0.812918 0.255832
vt 0.754739 0.280819
vt 0.754704 0.256289
vt 0.776408 0.137259
vt 0.752081 0.137299
vt 0.751376 0.165590
vt 0.776472 0.161625
vt 0.640267 0.287607
vt 0.640816 0.362573
vt 0.640594 0.146675
vt 0.756826 0.452039
vt 0.759288 0.393947
vt 0.745876 0.473064
vt 0.773814 0.395935
vt 0.793683 0.392453
vt 0.561326 0.569861
vt 0.754693 0.305340
vt 0.562650 0.494874
vt 0.590933 0.748230
vt 0.719649 0.652295
vt 0.799578 0.215915
vt 0.801637 0.165412
vt 0.800778 0.137164
vt 0.721483 0.515852
vt 0.710699 0.474367
vt 0.736045 0.068659
vt 0.767801 0.080806
vt 0.645916 0.435926
vt 0.501769 0.499682
vt 0.754579 0.241421
vt 0.556825 0.406575
vt 0.564384 0.421069
vt 0.669785 0.084255
vt 0.661019 0.070547
vt 0.667747 0.420950
vt 0.675287 0.406440
vt 0.820894 0.137016
vt 0.734221 0.528490
vt 0.754612 0.320727
vt 0.806944 0.320720
vt 0.562083 0.084235
vt 0.570792 0.070496
vt 0.732486 0.137254
vt 0.662344 0.524025
vt 0.847814 0.440818
vt 0.480222 0.580509
vt 0.507691 0.564307
vt 0.606574 0.563926
vt 0.723467 0.457806
vt 0.568917 0.564529
vt 0.835645 0.086219
vt 0.628170 0.519428
vt 0.700979 0.107064
vt 0.760342 0.509816
vt 0.501540 0.598493
vt 0.768580 0.346696
vt 0.775486 0.382306
vt 0.766202 0.381819
vt 0.764350 0.371793
vt 0.774552 0.370779
vt 0.786224 0.369523
vt 0.786448 0.379139
vt 0.773137 0.359460
vt 0.784217 0.360555
vt 0.763894 0.361684
vt 0.512818 0.605006
vt 0.802575 0.480015
vt 0.797347 0.471764
vt 0.519477 0.593490
vt 0.538113 0.596337
vt 0.557476 0.593070
vt 0.757059 0.478212
vt 0.563800 0.605008
vt 0.762349 0.469997
vt 0.814857 0.474510
vt 0.574152 0.598923
vt 0.780000 0.475987
vt 0.712618 0.090901
vt 0.737487 0.486645
vt 0.596100 0.581450
vt 0.811891 0.066713
vt 0.638686 0.502242
vt 0.836155 0.457630
vt 0.685037 0.160479
vt 0.768659 0.528224
vt 0.846965 0.102401
vt 0.621146 0.576333
vt 0.470153 0.562550
vt 0.710503 0.442316
vt 0.739635 0.543226
vt 0.738339 0.577386
vt 0.739101 0.122171
vt 0.655125 0.537907
vt 0.732446 0.172126
vt 0.676038 0.513212
vt 0.740335 0.313117
vt 0.735106 0.305174
vt 0.740239 0.248930
vt 0.501000 0.550180
vt 0.717200 0.117776
vt 0.726419 0.104513
vt 0.746996 0.088072
vt 0.822547 0.099625
vt 0.830572 0.113083
vt 0.585940 0.435869
vt 0.736169 0.444280
vt 0.726684 0.432081
vt 0.717183 0.363904
vt 0.640518 0.060655
vt 0.822705 0.445026
vt 0.830903 0.431704
vt 0.561132 0.155393
vt 0.780902 0.080658
vt 0.623161 0.443171
vt 0.691620 0.473205
vt 0.764169 0.056756
vt 0.754041 0.215582
vt 0.658935 0.602921
vt 0.814111 0.203487
vt 0.714102 0.618172
vt 0.812031 0.305825
vt 0.735143 0.256445
vt 0.806930 0.241421
vt 0.515325 0.493718
vt 0.590984 0.060499
vt 0.692205 0.624628
vt 0.816719 0.280855
vt 0.538012 0.576993
vt 0.615749 0.055085
vt 0.713827 0.234767
vt 0.827302 0.230406
vt 0.710254 0.167577
vt 0.835587 0.162785
vt 0.799970 0.109913
vt 0.814142 0.122020
vt 0.776315 0.101528
vt 0.576446 0.500289
vt 0.575956 0.550897
vt 0.589277 0.618367
vt 0.745994 0.636382
vt 0.855220 0.208692
vt 0.660291 0.645700
vt 0.565813 0.625527
vt 0.602348 0.482803
vt 0.570838 0.463814
vt 0.540718 0.746987
vt 0.514498 0.756454
vt 0.538736 0.458865
vt 0.685911 0.213666
vt 0.617680 0.756425
vt 0.521716 0.604299
vt 0.860784 0.366633
vn -0.988762 -0.062210 0.135940
vn -0.965027 -0.218921 0.144210
vn -0.972011 -0.136541 0.191182
vn -0.999800 0.008316 -0.018171
vn 0.999800 0.008315 -0.018170
vn 0.971856 -0.131146 0.195696
vn 0.968074 -0.209982 0.136898
vn 0.988758 -0.062221 0.135962
vn -0.996481 -0.074222 -0.038952
vn -0.999182 0.016828 -0.036769
vn 0.999182 0.016830 -0.036774
vn 0.996482 -0.074197 -0.038955
vn 0.820404 -0.375759 0.430978
vn 0.920350 -0.362399 0.147048
vn -0.912513 -0.376246 0.160498
vn -0.808141 -0.399491 0.432800
vn 0.007470 -0.570298 0.821404
vn -0.285568 -0.530318 0.798257
vn -0.396910 -0.503104 0.767691
vn 0.006588 -0.570325 0.821393
vn -0.418713 -0.010749 0.908055
vn -0.288804 0.015263 0.957267
vn 0.005490 0.055145 0.998463
vn 0.002877 0.055093 0.998477
vn -0.203281 0.932451 0.298683
vn 0.010224 0.951743 0.306725
vn 0.011405 0.978101 0.207818
vn -0.294364 0.939777 0.173690
vn 0.013496 0.997624 0.067553
vn -0.316157 0.946398 0.066153
vn 0.012708 0.987206 -0.158943
vn -0.279263 0.952210 -0.123725
vn -0.131440 0.957287 -0.257538
vn -0.225464 0.942643 -0.246151
vn -0.483453 0.036159 -0.874623
vn -0.205005 0.040402 -0.977927
vn -0.228889 -0.283091 -0.931381
vn -0.459294 -0.308103 -0.833139
vn -0.002629 -0.573534 -0.819178
vn -0.416867 -0.549411 -0.724134
vn -0.004370 -0.425527 0.904935
vn -0.424349 -0.420419 0.801982
vn -0.455287 -0.422293 0.783826
vn -0.003333 -0.425512 0.904947
vn 0.009819 -0.989335 -0.145323
vn 0.001080 -0.988010 -0.154389
vn 0.000976 -0.988010 -0.154387
vn 0.009750 -0.989229 -0.146052
vn -0.225351 -0.261719 -0.938467
vn 0.019089 -0.254467 -0.966893
vn 0.020762 -0.254425 -0.966870
vn -0.234685 -0.262246 -0.936029
vn -0.003755 -0.992318 -0.123658
vn -0.002984 -0.992807 -0.119692
vn -0.003277 -0.992824 -0.119538
vn 0.002653 -0.992277 -0.124011
vn 0.040197 -0.996312 0.075807
vn -0.003991 -0.997247 0.074044
vn -0.003656 -0.997217 0.074463
vn 0.046759 -0.995565 0.081629
vn 0.006801 -0.996045 0.088588
vn -0.003468 -0.997093 0.076116
vn -0.003364 -0.997041 0.076796
vn -0.019655 -0.996263 0.084108
vn 0.315405 0.946739 0.064852
vn 0.283068 0.951060 -0.123929
vn 0.297613 0.938918 0.172798
vn 0.216005 0.930018 0.297334
vn 0.414550 -0.007799 0.909993
vn 0.305367 0.021464 0.951993
vn 0.458634 -0.269310 0.846833
vn 0.390393 -0.292558 0.872928
vn 0.285923 -0.525081 0.801585
vn 0.392667 -0.497217 0.773684
vn -0.003751 -0.992169 -0.124844
vn 0.002164 -0.992207 -0.124580
vn 0.231133 -0.251882 -0.939751
vn 0.225969 -0.251554 -0.941094
vn -0.009877 -0.989286 -0.145660
vn -0.010127 -0.989383 -0.144977
vn 0.416172 -0.406212 0.813506
vn 0.444450 -0.406678 0.798171
vn 0.015445 -0.996262 0.084990
vn -0.007021 -0.996008 0.088991
vn -0.047096 -0.995519 0.082004
vn -0.045144 -0.996072 0.076172
vn 0.413766 -0.546780 -0.727894
vn 0.227122 -0.282725 -0.931924
vn 0.455594 -0.308533 -0.835010
vn 0.203979 0.040338 -0.978144
vn 0.480229 0.036168 -0.876397
vn 0.237707 0.940705 -0.242011
vn 0.154458 0.954696 -0.254360
vn 0.002972 -0.990830 -0.135082
vn 0.009317 -0.990901 -0.134272
vn -0.412343 0.886270 -0.210945
vn -0.400405 0.889635 -0.219602
vn 0.375653 0.892271 0.250474
vn 0.315870 0.906889 0.278886
vn 0.379245 0.899319 -0.217713
vn 0.387749 0.897144 -0.211622
vn -0.068778 -0.993240 0.093506
vn -0.089481 -0.992227 0.086480
vn 0.000750 -0.990829 -0.135119
vn 0.006491 -0.990705 -0.135870
vn -0.435117 0.898226 0.062157
vn -0.419570 0.904950 -0.070900
vn 0.391518 0.917089 -0.075236
vn 0.408219 0.910772 0.062056
vn -0.002248 -0.993526 0.113579
vn 0.037252 -0.991450 0.125055
vn 0.013650 -0.993491 0.113093
vn -0.029220 -0.991658 0.125539
vn 0.010301 -0.990056 -0.140296
vn 0.010301 -0.990056 -0.140296
vn -0.011941 -0.990075 -0.140029
vn -0.011941 -0.990075 -0.140029
vn 0.420413 0.897563 0.132788
vn -0.445822 0.885567 0.130435
vn -0.339867 -0.266526 -0.901917
vn -0.339867 -0.266526 -0.901917
vn 0.293754 -0.255309 -0.921154
vn 0.293754 -0.255309 -0.921155
vn -0.397033 0.883474 0.248675
vn -0.337073 0.899629 0.277580
vn 0.079347 -0.992470 0.093315
vn 0.100777 -0.991168 0.086201
vn -0.970478 -0.229866 0.073035
vn -0.685408 -0.292209 0.666956
vn -0.665012 -0.029941 0.746233
vn -0.997062 -0.003069 0.076541
vn -0.916929 -0.398164 0.026585
vn -0.651213 -0.493031 0.576925
vn 0.970365 -0.229966 0.074212
vn 0.676773 -0.292565 0.675562
vn 0.642658 -0.491410 0.587798
vn 0.916744 -0.398489 0.028068
vn 0.997016 -0.003068 0.077141
vn 0.655524 -0.030204 0.754570
vn -0.996585 0.003029 -0.082520
vn -0.750316 0.025983 -0.660569
vn -0.723752 -0.311141 -0.615934
vn -0.965155 -0.238588 -0.107478
vn -0.672158 -0.529021 -0.518015
vn -0.912009 -0.407319 -0.048274
vn 0.745131 0.026234 -0.666402
vn 0.996551 0.003058 -0.082925
vn 0.965045 -0.238618 -0.108398
vn 0.718807 -0.311551 -0.621492
vn 0.911869 -0.407524 -0.049187
vn 0.668057 -0.528044 -0.524280
vn -0.927090 -0.370782 -0.054994
vn 0.927094 -0.370772 -0.054993
vn -0.462198 -0.268838 0.845044
vn -0.035882 -0.990836 -0.130216
vn -0.021587 -0.992413 -0.121035
vn -0.004148 -0.992871 -0.119122
vn 0.016359 -0.992609 -0.120245
vn 0.049901 -0.990394 -0.128960
vn -0.379636 -0.296160 0.876451
vn 0.000002 -0.389549 0.921006
vn -0.000000 -0.389551 0.921005
vn 0.000001 -0.389547 0.921007
vn 0.000000 -0.389548 0.921006
vn 0.000000 -0.389549 0.921006
vn 0.000004 -0.389548 0.921006
vn -0.000001 -0.389547 0.921007
vn -0.000004 -0.389550 0.921005
vn 0.000001 -0.389544 0.921008
vn 0.988444 -0.052825 0.142084
vn 0.988392 -0.033932 0.148088
vn 0.988392 -0.033932 0.148088
vn 0.988417 -0.055755 0.141147
vn 0.042008 0.920205 0.389176
vn 0.002947 0.921375 0.388665
vn 0.003252 0.921371 0.388671
vn 0.042008 0.920205 0.389176
vn -0.012604 -0.881295 -0.472399
vn -0.069435 -0.879792 -0.470261
vn -0.069435 -0.879792 -0.470261
vn -0.012115 -0.881295 -0.472411
vn 0.988122 -0.071192 0.136187
vn 0.988122 -0.071192 0.136187
vn -0.988149 -0.058888 0.141756
vn -0.987563 -0.076306 0.137468
vn -0.987563 -0.076306 0.137468
vn -0.988072 -0.061829 0.141035
vn 0.048901 -0.879709 -0.472991
vn 0.048901 -0.879709 -0.472991
vn -0.988414 -0.041818 0.145909
vn -0.988414 -0.041818 0.145909
vn -0.037270 0.921108 0.387518
vn -0.037270 0.921108 0.387518
s 1
g telefono pCube31
usemtl telefono_SG
f 178/452/461 177/278/462 174/460/463 173/450/464
f 176/449/465 175/468/466 180/403/467 179/451/468
f 182/471/469 181/286/470 173/450/464 174/460/463
f 176/449/465 184/427/471 183/288/472 175/468/466
f 180/283/467 175/459/466 189/289/473 188/410/474
f 174/279/463 177/406/462 187/291/475 190/437/476
f 268/389/477 271/388/478 210/295/479 211/447/480
f 192/297/481 265/387/482 264/396/483 193/300/484
s 5
f 192/444/485 193/448/486 195/301/487 194/302/488
f 194/302/488 195/301/487 197/303/489 196/304/490
f 196/304/490 197/303/489 199/305/491 198/306/492
f 198/306/492 199/305/491 200/307/493 201/424/494
s 1
f 201/308/495 200/432/496 203/309/497 202/400/498
f 202/310/498 203/434/497 213/311/499 212/414/500
f 204/313/501 205/461/502 217/315/503 216/445/504
s 7
f 205/314/505 204/462/506 207/317/507 206/465/508
s 8
f 206/318/509 207/467/510 209/319/511 208/443/512
s 9
f 208/320/513 209/446/514 259/321/515 260/322/516
s 10
f 212/312/517 213/455/518 262/323/519 263/324/520
f 214/325/521 215/326/522 216/316/523 217/436/524
s 5
f 197/303/489 218/327/525 233/328/526 199/305/491
f 218/327/525 197/303/489 195/301/487 219/329/527
f 219/329/527 195/301/487 193/448/486 220/428/528
s 1
f 220/330/529 193/300/484 264/396/483 266/393/530
f 221/395/531 267/392/532 270/390/533 222/335/534
s 9
f 258/336/535 259/321/515 209/446/514 223/440/536
s 8
f 223/337/537 209/319/511 207/467/510 224/464/538
s 7
f 224/338/539 207/317/507 204/462/506 225/458/540
s 1
f 225/339/541 204/313/501 216/445/504 226/439/542
s 10
f 226/340/543 216/316/523 215/326/522 227/341/544
f 261/342/545 262/323/519 213/455/518 228/453/546
s 1
f 228/343/547 213/311/499 230/344/548 229/398/549
f 229/345/549 230/435/548 232/346/550 231/421/551
s 5
f 231/347/552 232/433/553 199/305/491 233/328/526
s 9
f 185/442/554 208/320/513 260/322/516 251/349/555
s 5
f 243/350/556 198/306/492 242/351/557
f 241/352/558 219/329/527 240/353/559
f 246/354/560 233/328/526 247/355/561
s 10
f 257/356/562 261/342/545 228/453/546 256/454/563
s 9
f 253/358/564 258/336/535 223/440/536 186/359/565
s 5
f 173/280/566 196/304/490 198/306/492 178/277/567
f 179/284/568 233/328/526 218/327/525 176/281/569
s 10
f 226/340/543 227/341/544 188/290/570 189/438/571
f 187/413/572 214/325/521 217/436/524 190/292/573
s 7
f 206/465/508 182/466/574 174/470/575 205/314/505
f 175/282/576 183/469/577 224/338/539 225/458/540
s 5
f 218/327/525 219/329/527 184/287/578 176/281/569
f 173/280/566 181/431/579 194/302/488 196/304/490
s 8
f 182/285/580 206/318/509 208/443/512 185/348/581
f 223/337/537 224/464/538 183/463/582 186/456/583
s 1
f 175/459/466 225/339/541 226/439/542 189/289/473
f 205/461/502 174/279/463 190/437/476 217/315/503
f 203/434/497 230/344/548 213/311/499
f 203/309/497 200/432/496 232/346/550 230/435/548
s 5
f 200/307/493 199/305/491 232/433/553
f 237/360/584 236/361/585 194/302/488
s 10
f 255/362/586 254/411/587 212/312/517 263/324/520
s 1
f 234/364/588 235/402/589 236/429/590 237/430/591
f 235/365/589 234/407/588 251/418/592 250/366/593
f 238/367/594 239/399/595 252/369/596 253/457/597
f 239/368/595 238/408/594 241/426/598 240/425/599
f 243/423/600 242/422/601 245/370/602 244/405/603
f 244/371/603 245/401/602 254/363/604 255/412/605
f 246/420/606 247/419/607 248/372/608 249/397/609
f 249/373/609 248/404/608 257/409/610 256/357/611
f 238/408/594 183/288/472 184/427/471 241/426/598
f 181/286/470 182/471/469 234/364/588 237/430/591
f 244/405/603 177/278/462 178/452/461 243/423/600
f 179/451/468 180/403/467 248/372/608 247/419/607
f 234/407/588 182/285/469 185/348/612 251/418/592
f 183/463/472 238/367/594 253/457/597 186/456/613
f 177/406/462 244/371/603 255/412/605 187/291/475
f 248/404/608 180/283/467 188/410/474 257/409/610
f 235/402/589 191/394/614 192/297/481 236/429/590
f 245/370/602 242/422/601 201/308/495 202/400/498
f 220/330/529 221/332/531 239/368/595 240/425/599
f 229/345/549 231/421/551 246/420/606 249/397/609
f 191/374/614 235/365/589 250/366/593 210/295/479
f 239/399/595 221/395/531 222/335/534 252/369/596
f 245/401/602 202/310/498 212/414/500 254/363/604
f 228/343/547 229/398/549 249/373/609 256/357/611
s 5
f 184/287/578 219/329/527 241/352/558
f 240/353/559 219/329/527 220/428/528
f 194/302/488 236/361/585 192/444/485
f 237/360/584 194/302/488 181/431/579
f 178/277/567 198/306/492 243/350/556
f 242/351/557 198/306/492 201/424/494
f 231/347/552 233/328/526 246/354/560
f 247/355/561 233/328/526 179/284/568
s 9
f 258/336/535 253/358/564 252/415/615 222/416/616
f 222/416/616 211/296/617 259/321/515 258/336/535
f 260/322/516 259/321/515 211/296/617 210/441/618
f 260/322/516 210/441/618 250/417/619 251/349/555
s 10
f 188/290/570 227/341/544 261/342/545 257/356/562
f 227/341/544 215/326/522 262/323/519 261/342/545
f 263/324/520 262/323/519 215/326/522 214/325/521
f 255/362/586 263/324/520 214/325/521 187/413/572
s 1
f 191/394/614 269/386/620 265/387/482 192/297/481
f 220/330/529 266/393/530 267/391/532 221/332/531
s 15
f 273/376/621 272/377/622 274/378/623 275/379/624
f 277/380/625 276/381/626 273/376/621 275/379/624
f 275/379/624 278/382/627 279/383/628 277/380/625
f 280/384/629 278/382/627 275/379/624 274/378/623
s 1
f 210/295/479 271/388/478 269/385/620 191/374/614
f 222/335/534 270/390/533 268/389/477 211/447/480
s 16
f 267/333/630 266/331/631 272/377/632 273/376/633
s 17
f 266/331/634 264/299/635 274/378/636 272/377/637
s 18
f 268/293/638 270/334/639 276/381/640 277/380/641
s 16
f 270/334/642 267/333/630 273/376/633 276/381/643
s 19
f 269/375/644 271/294/645 279/383/646 278/382/647
s 18
f 271/294/648 268/293/638 277/380/641 279/383/649
s 19
f 265/298/650 269/375/644 278/382/647 280/384/651
s 17
f 264/299/635 265/298/652 280/384/653 274/378/636
g default
v -450.346924 -532.719727 296.037964
v -422.416626 -532.719727 296.037964
v -450.346924 -530.040100 269.847504
v -422.416626 -530.040100 269.847504
v -450.346924 -506.850403 298.684784
v -447.554199 -503.708374 296.360046
v -425.209351 -503.708374 296.360046
v -422.416626 -506.850403 298.684784
v -447.554199 -501.564575 275.407166
v -450.346924 -504.170715 272.494354
v -425.209351 -501.564575 275.407166
v -422.416626 -504.170715 272.494354
vt 0.680986 0.756293
vt 0.641063 0.793883
vt 0.680962 0.793835
vt 0.640488 0.719284
vt 0.796947 0.900188
vt 0.717660 0.674147
vt 0.677073 0.711300
vt 0.796663 0.870209
vt 0.827314 0.869969
vt 0.827619 0.899946
vt 0.832646 0.905157
vt 0.640954 0.756346
vt 0.755274 0.674104
vt 0.755386 0.711180
vt 0.717921 0.711217
vt 0.639642 0.674255
vt 0.677256 0.674212
vt 0.639608 0.711337
vt 0.681371 0.719198
vt 0.791762 0.905243
vt 0.791643 0.864997
vt 0.832492 0.864914
vn 0.000000 -0.994807 -0.101782
vn 0.000000 -0.994807 -0.101782
vn 0.000000 -0.994807 -0.101782
vn 0.000000 -0.994807 -0.101782
vn -0.718996 0.691405 0.070742
vn -0.718996 0.691405 0.070742
vn -0.718996 0.691405 0.070742
vn -0.718996 0.691405 0.070742
vn 0.000000 0.594786 0.803884
vn 0.000000 0.594786 0.803884
vn 0.000000 0.594786 0.803884
vn 0.000000 0.594786 0.803884
vn 0.718991 0.691410 0.070741
vn 0.718991 0.691410 0.070741
vn 0.718991 0.691410 0.070741
vn 0.718991 0.691410 0.070741
vn 0.000000 0.745250 -0.666785
vn 0.000000 0.745250 -0.666785
vn 0.000000 0.745250 -0.666785
vn 0.000000 0.745250 -0.666785
vn 0.000000 -0.101784 0.994807
vn 0.000000 -0.101784 0.994807
vn 0.000000 -0.101784 0.994807
vn 0.000000 -0.101784 0.994807
vn 0.000000 0.994807 0.101783
vn 0.000000 0.994807 0.101783
vn 0.000000 0.994807 0.101783
vn 0.000000 0.994807 0.101783
vn 0.000000 0.101785 -0.994807
vn 0.000000 0.101785 -0.994807
vn 0.000000 0.101785 -0.994807
vn 0.000000 0.101785 -0.994807
vn 1.000000 -0.000002 0.000000
vn 1.000000 -0.000002 0.000000
vn 1.000000 -0.000002 0.000000
vn 1.000000 -0.000002 0.000000
vn -1.000000 0.000000 0.000000
vn -1.000000 0.000000 0.000000
vn -1.000000 0.000000 0.000000
vn -1.000000 0.000000 0.000000
s off
g telefono pCube41
usemtl telefono_SG
f 283/483/654 284/472/655 282/474/656 281/473/657
f 285/492/658 286/479/659 289/476/660 290/491/661
f 286/479/662 285/492/663 288/493/664 287/480/665
f 287/480/666 288/493/667 292/482/668 291/481/669
f 290/491/670 289/476/671 291/481/672 292/482/673
f 281/488/674 282/477/675 288/486/676 285/478/677
f 286/479/678 287/480/679 291/481/680 289/476/681
f 290/475/682 292/490/683 284/472/684 283/483/685
f 282/477/686 284/484/687 292/485/688 288/486/689
f 283/487/690 281/488/691 285/478/692 290/489/693
g default
v -484.162384 -532.719727 296.037964
v -456.232056 -532.719727 296.037964
v -484.162384 -530.040100 269.847504
v -456.232056 -530.040100 269.847504
v -484.162384 -506.850403 298.684784
v -481.369690 -503.708374 296.360046
v -459.024780 -503.708374 296.360046
v -456.232056 -506.850403 298.684784
v -481.369690 -501.564575 275.407166
v -484.162384 -504.170715 272.494354
v -459.024780 -501.564575 275.407166
v -456.232056 -504.170715 272.494354
vt 0.680986 0.756293
vt 0.641063 0.793883
vt 0.680962 0.793835
vt 0.640488 0.719284
vt 0.746107 0.900135
vt 0.717659 0.674147
vt 0.677073 0.711300
vt 0.745822 0.870156
vt 0.776473 0.869916
vt 0.776779 0.899893
vt 0.781805 0.905104
vt 0.640954 0.756346
vt 0.755273 0.674104
vt 0.755386 0.711180
vt 0.717921 0.711217
vt 0.639642 0.674255
vt 0.677256 0.674212
vt 0.639608 0.711337
vt 0.681371 0.719198
vt 0.740922 0.905190
vt 0.740802 0.864944
vt 0.781651 0.864861
vn 0.000000 -0.994807 -0.101782
vn 0.000000 -0.994807 -0.101782
vn 0.000000 -0.994807 -0.101782
vn 0.000000 -0.994807 -0.101782
vn -0.719001 0.691399 0.070742
vn -0.719001 0.691399 0.070742
vn -0.719001 0.691399 0.070742
vn -0.719001 0.691399 0.070742
vn 0.000000 0.594786 0.803884
vn 0.000000 0.594786 0.803884
vn 0.000000 0.594786 0.803884
vn 0.000000 0.594786 0.803884
vn 0.718996 0.691405 0.070742
vn 0.718996 0.691405 0.070742
vn 0.718996 0.691405 0.070742
vn 0.718996 0.691405 0.070742
vn 0.000000 0.745251 -0.666784
vn 0.000000 0.745251 -0.666784
vn 0.000000 0.745251 -0.666784
vn 0.000000 0.745251 -0.666784
vn 0.000000 -0.101784 0.994807
vn 0.000000 -0.101784 0.994807
vn 0.000000 -0.101784 0.994807
vn 0.000000 -0.101784 0.994807
vn 0.000000 0.994807 0.101785
vn 0.000000 0.994807 0.101785
vn 0.000000 0.994807 0.101785
vn 0.000000 0.994807 0.101785
vn 0.000000 0.101784 -0.994807
vn 0.000000 0.101784 -0.994807
vn 0.000000 0.101784 -0.994807
vn 0.000000 0.101784 -0.994807
vn 1.000000 0.000000 0.000000
vn 1.000000 0.000000 0.000000
vn 1.000000 0.000000 0.000000
vn 1.000000 0.000000 0.000000
vn -1.000000 -0.000001 0.000000
vn -1.000000 -0.000001 0.000000
vn -1.000000 -0.000001 0.000000
vn -1.000000 -0.000001 0.000000
s off
g telefono pCube42
usemtl telefono_SG
f 295/505/694 296/494/695 294/496/696 293/495/697
f 297/514/698 298/501/699 301/498/700 302/513/701
f 298/501/702 297/514/703 300/515/704 299/502/705
f 299/502/706 300/515/707 304/504/708 303/503/709
f 302/513/710 301/498/711 303/503/712 304/504/713
f 293/510/714 294/499/715 300/508/716 297/500/717
f 298/501/718 299/502/719 303/503/720 301/498/721
f 302/497/722 304/512/723 296/494/724 295/505/725
f 294/499/726 296/506/727 304/507/728 300/508/729
f 295/509/730 293/510/731 297/500/732 302/511/733
g default
v -519.245911 -532.719727 296.037964
v -491.315613 -532.719727 296.037964
v -519.245911 -530.040100 269.847504
v -491.315613 -530.040100 269.847504
v -519.245911 -506.850403 298.684784
v -516.453247 -503.708374 296.360046
v -494.108307 -503.708374 296.360046
v -491.315613 -506.850403 298.684784
v -516.453247 -501.564575 275.407166
v -519.245911 -504.170715 272.494354
v -494.108307 -501.564575 275.407166
v -491.315613 -504.170715 272.494354
vt 0.680986 0.756293
vt 0.641063 0.793883
vt 0.680962 0.793835
vt 0.640488 0.719284
vt 0.698570 0.900787
vt 0.717659 0.674147
vt 0.677073 0.711300
vt 0.698285 0.870809
vt 0.728936 0.870569
vt 0.729242 0.900546
vt 0.734268 0.905757
vt 0.640954 0.756346
vt 0.755274 0.674104
vt 0.755386 0.711180
vt 0.717921 0.711217
vt 0.639642 0.674255
vt 0.677256 0.674212
vt 0.639608 0.711337
vt 0.681371 0.719198
vt 0.693385 0.905843
vt 0.693265 0.865597
vt 0.734114 0.865514
vn 0.000000 -0.994807 -0.101782
vn 0.000000 -0.994807 -0.101782
vn 0.000000 -0.994807 -0.101782
vn 0.000000 -0.994807 -0.101782
vn -0.719006 0.691394 0.070740
vn -0.719007 0.691394 0.070740
vn -0.719006 0.691394 0.070740
vn -0.719006 0.691394 0.070740
vn 0.000000 0.594781 0.803887
vn 0.000000 0.594781 0.803887
vn 0.000000 0.594781 0.803887
vn 0.000000 0.594781 0.803887
vn 0.719001 0.691399 0.070742
vn 0.719001 0.691399 0.070742
vn 0.719001 0.691399 0.070742
vn 0.719001 0.691399 0.070742
vn 0.000000 0.745246 -0.666789
vn 0.000000 0.745246 -0.666789
vn 0.000000 0.745246 -0.666789
vn 0.000000 0.745246 -0.666789
vn 0.000000 -0.101784 0.994807
vn 0.000000 -0.101784 0.994807
vn 0.000000 -0.101784 0.994807
vn 0.000000 -0.101784 0.994807
vn 0.000000 0.994807 0.101782
vn 0.000000 0.994807 0.101782
vn 0.000000 0.994807 0.101782
vn 0.000000 0.994807 0.101782
vn 0.000000 0.101785 -0.994807
vn 0.000000 0.101785 -0.994807
vn 0.000000 0.101785 -0.994807
vn 0.000000 0.101785 -0.994807
vn 1.000000 -0.000002 0.000000
vn 1.000000 -0.000002 0.000000
vn 1.000000 -0.000002 0.000000
vn 1.000000 -0.000002 0.000000
vn -1.000000 -0.000000 0.000000
vn -1.000000 -0.000000 0.000000
vn -1.000000 -0.000000 0.000000
vn -1.000000 -0.000000 0.000000
s off
g telefono pCube43
usemtl telefono_SG
f 307/527/734 308/516/735 306/518/736 305/517/737
f 309/536/738 310/523/739 313/520/740 314/535/741
f 310/523/742 309/536/743 312/537/744 311/524/745
f 311/524/746 312/537/747 316/526/748 315/525/749
f 314/535/750 313/520/751 315/525/752 316/526/753
f 305/532/754 306/521/755 312/530/756 309/522/757
f 310/523/758 311/524/759 315/525/760 313/520/761
f 314/519/762 316/534/763 308/516/764 307/527/765
f 306/521/766 308/528/767 316/529/768 312/530/769
f 307/531/770 305/532/771 309/522/772 314/533/773
