# This file uses centimeters as units for non-parametric coordinates.

mtllib compu.mtl
g default
v -1.677414 1.620546 0.351443
v 1.677414 1.620546 0.351443
v -1.677414 4.426615 0.351443
v 1.677414 4.426615 0.351443
v -1.663738 3.989451 -2.859553
v 1.663738 3.989451 -2.859553
v -1.663738 1.459377 -2.859553
v 1.663738 1.459377 -2.859553
v -2.017093 4.710731 -0.650615
v -2.017093 1.336430 -0.650615
v 2.017093 1.336430 -0.650615
v 2.017093 4.710731 -0.650615
v -2.234635 4.910552 0.281550
v 2.234635 4.910552 0.281550
v 2.234635 4.910552 -0.581745
v -2.234635 4.910552 -0.581745
v -2.234635 1.136610 -0.581745
v 2.234635 1.136610 -0.581745
v 2.234635 1.136610 0.281550
v -2.234635 1.136610 0.281550
v -1.677414 1.620546 0.126468
v 1.677414 1.620546 0.126468
v 1.677414 4.426615 0.126468
v -1.677414 4.426615 0.126468
v 1.248006 3.992030 0.236489
v 1.248005 2.021255 0.236489
v -1.281167 2.021255 0.236489
v -1.281167 3.992030 0.236489
v 2.264687 4.935929 -0.184532
v -2.264687 4.935929 -0.184532
v -2.264687 1.111233 -0.184532
v 2.264687 1.111233 -0.184532
v 0.541472 1.413972 -2.142507
v -0.515195 1.413229 -2.142507
v -0.602086 1.371371 -1.179626
v 0.646978 1.372110 -1.179626
v 0.432789 0.542523 -2.062491
v 0.516139 0.542522 -0.991326
v -0.470622 0.542523 -0.991326
v -0.401979 0.542523 -2.062491
v 1.970823 0.542524 -3.081647
v 2.054259 0.542522 0.075824
v 2.123599 0.301385 0.118568
v 2.037323 0.301386 -3.146358
v -2.011602 0.542522 0.105152
v -2.080631 0.301385 0.148894
v -1.943045 0.542524 -3.052318
v -2.009742 0.301386 -3.116031
vt 0.375000 0.000000
vt 0.625000 0.000000
vt 0.375000 0.250000
vt 0.625000 0.250000
vt 0.375000 0.500000
vt 0.625000 0.500000
vt 0.375000 0.750000
vt 0.625000 0.750000
vt 0.375000 1.000000
vt 0.625000 1.000000
vt 0.875000 0.000000
vt 0.875000 0.250000
vt 0.125000 0.000000
vt 0.125000 0.250000
vt 0.305954 0.250000
vt 0.375000 0.319046
vt 0.305954 0.000000
vt 0.375000 0.930954
vt 0.625000 0.930954
vt 0.694046 0.000000
vt 0.625000 0.319046
vt 0.694046 0.250000
vt 0.375000 0.250000
vt 0.625000 0.250000
vt 0.625000 0.319046
vt 0.375000 0.319046
vt 0.375000 0.930954
vt 0.625000 0.930954
vt 0.625000 1.000000
vt 0.375000 1.000000
vt 0.694046 0.000000
vt 0.694046 0.250000
vt 0.625000 0.000000
vt 0.305954 0.250000
vt 0.305954 0.000000
vt 0.375000 0.000000
vt 0.375000 0.000000
vt 0.625000 0.000000
vt 0.625000 0.250000
vt 0.375000 0.250000
vt 0.600350 0.223920
vt 0.599106 0.018022
vt 0.393787 0.018324
vt 0.393697 0.233698
vt 0.625000 0.284523
vt 0.659523 0.250000
vt 0.340477 0.250000
vt 0.375000 0.284523
vt 0.340477 0.000000
vt 0.375000 0.965477
vt 0.625000 0.965477
vt 0.659523 0.000000
vt 0.570137 0.800188
vt 0.412098 0.801862
vt 0.411603 0.896164
vt 0.584240 0.894500
vt 0.570137 0.800188
vt 0.584240 0.894500
vt 0.411603 0.896164
vt 0.412098 0.801862
vt 0.570137 0.800188
vt 0.584240 0.894500
vt 0.584240 0.894500
vt 0.570137 0.800188
vt 0.411603 0.896164
vt 0.411603 0.896164
vt 0.412098 0.801862
vt 0.412098 0.801862
vn 0.046508 -0.058947 0.997177
vn 0.122376 -0.138690 0.982746
vn 0.111319 0.139122 0.983999
vn 0.046509 0.057004 0.997290
vn 0.000000 0.998521 0.054365
vn 0.000000 0.998521 0.054365
vn 0.000000 1.000000 0.000217
vn 0.000000 1.000000 0.000217
vn 0.000000 0.000000 -1.000000
vn 0.000000 0.000000 -1.000000
vn 0.000000 0.000000 -1.000000
vn 0.000000 0.000000 -1.000000
vn 0.000000 -1.000000 0.000217
vn 0.000000 -1.000000 0.000217
vn 0.000000 -0.998521 0.054367
vn 0.000000 -0.998521 0.054367
vn 0.997928 0.000000 0.064345
vn 1.000000 -0.000000 0.000215
vn 1.000000 -0.000000 0.000215
vn 0.997928 0.000000 0.064345
vn -1.000000 -0.000000 0.000215
vn -1.000000 -0.000000 0.000215
vn -0.997928 0.000000 0.064345
vn -0.997928 0.000000 0.064345
vn -0.987446 0.000000 -0.157958
vn -0.987446 0.000000 -0.157958
vn -0.987446 0.000000 -0.157958
vn -0.987446 0.000000 -0.157958
vn -0.000424 -0.998502 -0.054719
vn -0.000361 -0.998480 -0.055114
vn -0.000198 -0.998331 -0.057751
vn -0.000218 -0.998255 -0.059051
vn 0.987446 0.000000 -0.157958
vn 0.987446 0.000000 -0.157958
vn 0.987446 0.000000 -0.157958
vn 0.987446 0.000000 -0.157958
vn 0.000000 0.950606 -0.310399
vn 0.000000 0.950606 -0.310399
vn 0.000000 0.950606 -0.310399
vn 0.000000 0.950606 -0.310399
vn -0.059575 0.075163 0.995390
vn 0.059575 0.075163 0.995390
vn 0.066942 0.066700 0.995525
vn -0.066942 0.066700 0.995525
vn 0.144590 0.178056 -0.973339
vn -0.144590 0.178056 -0.973339
vn -0.154962 0.166895 -0.973721
vn 0.154962 0.166895 -0.973721
vn -0.144590 -0.178057 -0.973339
vn 0.144590 -0.178057 -0.973339
vn 0.154963 -0.166896 -0.973721
vn -0.154963 -0.166896 -0.973721
vn 0.059575 -0.075163 0.995390
vn -0.059575 -0.075163 0.995390
vn -0.066942 -0.066700 0.995525
vn 0.066942 -0.066700 0.995525
vn 0.000000 1.000000 0.000000
vn 0.000000 1.000000 0.000000
vn 0.000000 1.000000 0.000000
vn 0.000000 1.000000 0.000000
vn -1.000000 0.000000 0.000000
vn -1.000000 0.000000 0.000000
vn -1.000000 0.000000 0.000000
vn -1.000000 0.000000 0.000000
vn 0.000000 -1.000000 0.000000
vn 0.000000 -1.000000 0.000000
vn 0.000000 -1.000000 0.000000
vn 0.000000 -1.000000 0.000000
vn 1.000000 0.000000 0.000000
vn 1.000000 0.000000 0.000000
vn 1.000000 0.000000 0.000000
vn 1.000000 0.000000 0.000000
vn -0.047980 0.056891 0.997227
vn -0.047979 -0.058827 0.997115
vn -0.108718 0.149669 0.982741
vn -0.120425 -0.150342 0.981272
vn 0.000000 0.997966 -0.063755
vn 0.000000 0.997966 -0.063755
vn -0.997150 -0.000000 -0.075442
vn -0.997150 -0.000000 -0.075442
vn 0.000000 -0.997965 -0.063758
vn 0.000000 -0.997965 -0.063758
vn 0.997150 -0.000000 -0.075442
vn 0.997150 -0.000000 -0.075442
vn 0.000013 -0.998497 -0.054809
vn 0.000059 -0.998255 -0.059043
vn 0.000075 -0.998329 -0.057793
vn 0.000034 -0.998476 -0.055186
vn 0.983635 -0.153409 -0.094485
vn 0.983635 -0.153409 -0.094485
vn 0.983635 -0.153409 -0.094485
vn 0.983635 -0.153409 -0.094485
vn -0.000073 0.221444 0.975173
vn -0.000073 0.221444 0.975173
vn -0.000073 0.221444 0.975173
vn -0.000073 0.221444 0.975173
vn -0.984920 -0.154187 -0.078485
vn -0.984920 -0.154187 -0.078485
vn -0.984920 -0.154187 -0.078485
vn -0.984920 -0.154187 -0.078485
vn 0.000036 -0.091474 -0.995807
vn 0.000036 -0.091474 -0.995807
vn 0.000036 -0.091474 -0.995807
vn 0.000036 -0.091474 -0.995807
vn 0.961933 0.272101 -0.025419
vn 0.961933 0.272101 -0.025419
vn 0.961933 0.272101 -0.025419
vn 0.961933 0.272101 -0.025419
vn 0.007100 0.176513 0.984273
vn 0.007100 0.176513 0.984273
vn 0.007100 0.176513 0.984273
vn 0.007100 0.176513 0.984273
vn -0.962170 0.271647 -0.020891
vn -0.962170 0.271647 -0.020891
vn -0.962170 0.271647 -0.020891
vn -0.962170 0.271647 -0.020891
vn -0.007241 0.257315 -0.966300
vn -0.007241 0.257315 -0.966300
vn -0.007241 0.257315 -0.966300
vn -0.007241 0.257315 -0.966300
vn -0.000000 1.000000 0.000001
vn -0.000000 1.000000 0.000001
vn -0.000000 1.000000 0.000001
vn -0.000000 1.000000 0.000001
vn 0.000000 1.000000 0.000000
vn 0.000000 1.000000 0.000000
vn -0.000000 -1.000000 -0.000000
vn -0.000000 -1.000000 -0.000000
vn -0.000000 -1.000000 -0.000000
vn -0.000000 -1.000000 -0.000000
vn 0.000000 1.000000 0.000000
vn 0.000000 1.000000 0.000000
s 1
g ordenador group1
usemtl initialShadingGroup
f 26/42/1 22/38/2 23/39/3 25/41/4
s 2
f 13/23/5 14/24/6 29/45/7 30/48/8
s off
f 5/5/9 6/6/10 8/8/11 7/7/12
s 3
f 31/50/13 32/51/14 19/29/15 20/30/16
s 4
f 19/33/17 32/52/18 29/46/19 14/24/20
s 5
f 30/47/21 31/49/22 20/36/23 13/23/24
s off
f 5/14/25 7/13/26 10/17/27 9/15/28
s 6
f 10/18/29 7/7/30 34/54/31 35/55/32
s off
f 8/11/33 6/12/34 12/22/35 11/20/36
f 6/6/37 5/5/38 9/16/39 12/21/40
s 7
f 3/3/41 4/4/42 14/24/43 13/23/44
s 8
f 12/21/45 9/16/46 16/26/47 15/25/48
f 10/18/49 11/19/50 18/28/51 17/27/52
s 7
f 2/10/53 1/9/54 20/30/55 19/29/56
s 8
f 11/20/50 12/22/45 15/32/48 18/31/51
s 7
f 4/4/42 2/2/53 19/33/56 14/24/43
s 8
f 9/15/46 10/17/49 17/35/52 16/34/47
s 7
f 1/1/54 3/3/41 13/23/44 20/36/55
s off
f 1/1/57 2/2/58 22/38/59 21/37/60
f 2/2/61 4/4/62 23/39/63 22/38/64
f 4/4/65 3/3/66 24/40/67 23/39/68
f 3/3/69 1/1/70 21/37/71 24/40/72
s 1
f 25/41/4 28/44/73 27/43/74 26/42/1
f 24/40/75 28/44/73 25/41/4 23/39/3
f 21/37/76 22/38/2 26/42/1 27/43/74
f 21/37/76 27/43/74 28/44/73 24/40/75
s 2
f 30/48/8 29/45/7 15/25/77 16/26/78
s 5
f 16/34/79 17/35/80 31/49/22 30/47/21
s 3
f 17/27/81 18/28/82 32/51/14 31/50/13
s 4
f 29/46/19 32/52/18 18/31/83 15/32/84
s 6
f 11/19/85 36/56/86 33/53/87 8/8/88
f 34/54/31 7/7/30 8/8/88 33/53/87
f 10/18/29 35/55/32 36/56/86 11/19/85
s off
f 33/53/89 36/56/90 38/58/91 37/57/92
f 36/56/93 35/55/94 39/59/95 38/58/96
f 35/55/97 34/54/98 40/60/99 39/59/100
f 34/54/101 33/53/102 37/57/103 40/60/104
f 41/61/105 42/62/106 43/63/107 44/64/108
f 42/62/109 45/65/110 46/66/111 43/63/112
f 45/65/113 47/67/114 48/68/115 46/66/116
f 47/67/117 41/61/118 44/64/119 48/68/120
s 9
f 37/57/121 38/58/122 42/62/123 41/61/124
f 38/58/122 39/59/125 45/65/126 42/62/123
s off
f 44/64/127 43/63/128 46/66/129 48/68/130
s 9
f 39/59/125 40/60/131 47/67/132 45/65/126
f 40/60/131 37/57/121 41/61/124 47/67/132
