# This file uses centimeters as units for non-parametric coordinates.

mtllib teclado.mtl
g default
v -2.210203 0.310760 2.522318
v 2.285306 0.310760 2.313078
v -2.210203 0.469167 2.522318
v 2.285306 0.469167 2.313078
v -2.405211 0.609843 0.914335
v 2.330108 0.609843 0.693933
v -2.405211 0.310760 0.914335
v 2.330108 0.310760 0.693933
v -2.074717 0.537441 2.418412
v 2.140753 0.537441 2.222206
v 2.187633 0.660235 0.808510
v -2.252708 0.660235 1.015182
vt 0.375000 0.000000
vt 0.625000 0.000000
vt 0.375000 0.250000
vt 0.625000 0.250000
vt 0.375000 0.500000
vt 0.625000 0.500000
vt 0.375000 0.750000
vt 0.625000 0.750000
vt 0.375000 1.000000
vt 0.625000 1.000000
vt 0.875000 0.000000
vt 0.875000 0.250000
vt 0.125000 0.000000
vt 0.125000 0.250000
vt 0.375000 0.250000
vt 0.625000 0.250000
vt 0.625000 0.500000
vt 0.375000 0.500000
vn 0.046494 0.000000 0.998919
vn 0.046494 0.000000 0.998919
vn 0.045359 0.219620 0.974531
vn 0.045359 0.219620 0.974530
vn 0.004034 0.996229 0.086666
vn 0.004034 0.996229 0.086666
vn 0.004034 0.996229 0.086666
vn 0.004034 0.996229 0.086666
vn -0.046039 0.139556 -0.989143
vn -0.046039 0.139555 -0.989143
vn -0.046494 0.000000 -0.998919
vn -0.046494 0.000000 -0.998919
vn 0.000000 -1.000000 -0.000001
vn 0.000000 -1.000000 -0.000001
vn 0.000000 -1.000000 -0.000001
vn 0.000000 -1.000000 -0.000001
vn 0.999617 0.000000 0.027660
vn 0.999617 0.000000 0.027660
vn 0.951790 0.302153 0.052912
vn 0.951216 0.303930 0.053052
vn -0.992726 0.000000 0.120393
vn -0.992726 0.000000 0.120393
vn -0.942176 0.303929 0.141179
vn -0.942760 0.302153 0.141092
vn 0.026670 0.819120 0.573002
vn 0.026670 0.819120 0.573002
vn 0.386904 0.917578 0.091409
vn 0.386904 0.917578 0.091409
vn -0.019685 0.905952 -0.422922
vn -0.019685 0.905952 -0.422922
vn -0.376741 0.917578 0.126952
vn -0.376741 0.917578 0.126952
s 1
g teclado group1
usemtl initialShadingGroup
f 1/1/1 2/2/2 4/4/3 3/3/4
s off
f 9/15/5 10/16/6 11/17/7 12/18/8
s 2
f 5/5/9 6/6/10 8/8/11 7/7/12
s off
f 7/7/13 8/8/14 2/10/15 1/9/16
s 3
f 2/2/17 8/11/18 6/12/19 4/4/20
s 4
f 7/13/21 1/1/22 3/3/23 5/14/24
s 1
f 3/3/4 4/4/3 10/16/25 9/15/26
s 3
f 4/4/20 6/6/19 11/17/27 10/16/28
s 2
f 6/6/10 5/5/9 12/18/29 11/17/30
s 4
f 5/5/24 3/3/23 9/15/31 12/18/32
